<svg width="24" height="24" viewBox="0 0 24 24" fill="none" xmlns="http://www.w3.org/2000/svg">
<path d="M21.7371 19.4374C21.5691 20.6873 20.728 21.768 19.551 22.2484C18.9742 22.4881 18.3493 22.5609 17.7244 22.4881C17.1241 22.4164 16.5227 22.2238 15.8989 21.8643C15.0343 21.3827 14.1686 20.6391 13.1596 19.5337C14.7454 17.5873 15.7063 15.81 16.0669 14.2242C16.2349 13.4794 16.2595 12.8063 16.1867 12.1814C16.0904 11.5811 15.8743 11.0279 15.5383 10.5475C14.7936 9.46673 13.5437 8.84181 12.1505 8.84181C10.7573 8.84181 9.5075 9.49025 8.76275 10.5475C8.42677 11.0279 8.21063 11.5811 8.11432 12.1814C8.018 12.8063 8.04264 13.5029 8.23415 14.2242C8.59476 15.81 9.57918 17.6119 11.1415 19.5573C10.1559 20.6626 9.26784 21.4074 8.40214 21.8878C7.77722 22.2484 7.17694 22.4411 6.57666 22.5127C5.95734 22.5822 5.3313 22.4993 4.75118 22.2731C3.57414 21.7926 2.73307 20.7108 2.56509 19.4621C2.49341 18.8618 2.54157 18.2615 2.78123 17.5884C2.85291 17.3476 2.97386 17.108 3.09369 16.8202C3.26168 16.436 3.45431 16.0273 3.64581 15.6185L3.67045 15.5703C5.32794 11.9899 7.10638 8.33784 8.9565 4.78208L9.02818 4.63761C9.2208 4.27811 9.41231 3.89286 9.60494 3.53224C9.79756 3.14811 10.0137 2.78749 10.278 2.47504C10.7831 1.89827 11.4551 1.58581 12.1998 1.58581C12.9446 1.58581 13.6176 1.89827 14.1216 2.47504C14.3859 2.78749 14.602 3.14811 14.7947 3.53224C14.9873 3.89286 15.1788 4.27699 15.3714 4.63649L15.4442 4.78096C17.2697 8.36024 19.0481 12.0123 20.7056 15.5927V15.6162C20.8983 16.0004 21.0663 16.4338 21.2578 16.8179C21.3776 17.1069 21.4985 17.3465 21.5702 17.5862C21.7617 18.2122 21.8334 18.8125 21.7371 19.4374V19.4374ZM12.1505 18.3074C10.8537 16.6734 10.0126 15.1358 9.72365 13.8389C9.60382 13.2857 9.57918 12.8052 9.65197 12.3729C9.70013 11.9888 9.8446 11.6517 10.0361 11.3639C10.493 10.7154 11.2613 10.3067 12.1505 10.3067C13.0397 10.3067 13.8327 10.6919 14.2649 11.3639C14.4576 11.6528 14.6009 11.9888 14.6491 12.3729C14.7208 12.8052 14.6972 13.3103 14.5774 13.8389C14.2896 15.1123 13.4485 16.6499 12.1505 18.3074V18.3074ZM22.9869 17.0587C22.8671 16.7709 22.7461 16.4584 22.6263 16.1941C22.4337 15.7618 22.2422 15.3531 22.0731 14.9689L22.0495 14.9454C20.3921 11.3415 18.6136 7.68941 16.74 4.08549L16.6683 3.94102C16.4757 3.5804 16.2842 3.19627 16.0915 2.81213C15.8508 2.37984 15.6111 1.92291 15.227 1.49062C14.4576 0.528605 13.3522 0 12.1752 0C10.9735 0 9.89276 0.528605 9.09873 1.44134C8.73811 1.87364 8.47381 2.33056 8.23415 2.76286C8.04152 3.14699 7.85001 3.53112 7.65739 3.89174L7.58571 4.03509C5.73559 7.63901 3.93363 11.2911 2.27614 14.895L2.25263 14.9432C2.08464 15.3273 1.89201 15.7361 1.69938 16.1684C1.57059 16.4528 1.45076 16.7418 1.33877 17.0329C1.02631 17.9222 0.929995 18.7632 1.04983 19.6278C1.31413 21.4298 2.51581 22.9439 4.1733 23.6159C4.79822 23.8802 5.44665 24 6.11973 24C6.31236 24 6.55202 23.9765 6.74465 23.9518C7.53755 23.8555 8.35398 23.5923 9.14689 23.1354C10.1324 22.5833 11.0687 21.7904 12.1259 20.6369C13.1831 21.7904 14.144 22.5833 15.1049 23.1354C15.8978 23.5923 16.7142 23.8555 17.5071 23.9518C17.6998 23.9765 17.9394 24 18.132 24C18.8051 24 19.4771 23.8802 20.0785 23.6159C21.7606 22.9428 22.9376 21.4051 23.202 19.6278C23.3946 18.7879 23.2983 17.9479 22.9869 17.0587V17.0587Z" fill="#FF5A5F"/>
</svg>
