<svg width="24" height="24" viewBox="0 0 24 24" fill="none" xmlns="http://www.w3.org/2000/svg">
<rect width="24" height="24" rx="2" fill="white"/>
<mask id="mask0_3_859" style="mask-type:luminance" maskUnits="userSpaceOnUse" x="0" y="0" width="24" height="24">
<rect width="24" height="24" rx="2" fill="white"/>
</mask>
<g mask="url(#mask0_3_859)">
<path fill-rule="evenodd" clip-rule="evenodd" d="M16.2679 9.97529C16.2659 9.79183 16.2639 9.60824 16.2639 9.42432C16.2624 9.12848 16.2628 8.83196 16.2633 8.53563C16.2639 8.14117 16.2645 7.74705 16.2603 7.3553C16.2529 6.81969 16.1979 6.28412 15.9594 5.78888C15.5413 4.91581 14.7929 4.47559 13.9015 4.22614C12.7936 3.91433 11.6748 3.93269 10.5706 4.23348C9.13255 4.626 8.13472 5.48075 7.82291 7.00313C7.77157 7.24159 7.89995 7.42868 8.14574 7.45436C8.74367 7.51673 9.34529 7.57909 9.94691 7.64145C10.2294 7.67082 10.3651 7.5681 10.4348 7.27829C10.5632 6.75006 10.8824 6.39421 11.3959 6.21814C11.7334 6.1044 12.0783 6.0824 12.4267 6.15943C12.9146 6.26583 13.2338 6.55199 13.3512 7.03986C13.4186 7.32027 13.4147 7.60862 13.4108 7.89615C13.4093 7.99981 13.4079 8.10338 13.4099 8.20642C13.4136 8.28345 13.3622 8.29079 13.3035 8.29447C13.0651 8.31648 12.8303 8.33848 12.5918 8.36417C11.7481 8.44853 10.9081 8.54392 10.0937 8.79337C9.30496 9.03913 8.61898 9.43899 8.12374 10.1176C7.47078 11.0164 7.35339 12.0252 7.58083 13.0854C7.78627 14.0355 8.34019 14.7178 9.26464 15.048C10.2258 15.3892 11.1979 15.3378 12.1554 15.0113C12.7753 14.8022 13.2632 14.384 13.7254 13.9328C13.8025 13.8594 13.8355 13.8558 13.8978 13.9511C14.1583 14.351 14.4518 14.7252 14.8259 15.0297C15.1047 15.2571 15.2771 15.2608 15.5523 15.0297C15.7825 14.836 16.0118 14.6414 16.2411 14.4468C16.4722 14.2507 16.7032 14.0546 16.9353 13.8594C17.1517 13.676 17.1811 13.5109 17.0233 13.2725C16.9793 13.2064 16.9316 13.1441 16.8802 13.0817C16.44 12.5535 16.2273 11.9555 16.2566 11.2585C16.2771 10.8298 16.2725 10.4029 16.2679 9.97529ZM13.4087 10.4118C13.4093 10.4642 13.4099 10.5165 13.4099 10.5689C13.4099 11.1008 13.3916 11.6327 13.1568 12.1279C12.933 12.6158 12.6102 13.0046 12.082 13.1881C11.3043 13.4595 10.5779 13.0083 10.4642 12.1939C10.3688 11.5006 10.4899 10.8843 11.0658 10.4331C11.462 10.125 11.9389 10.0039 12.4268 9.94154C12.5939 9.91956 12.7624 9.90943 12.9306 9.89931C13.0429 9.89255 13.1552 9.8858 13.2669 9.87553C13.3806 9.86451 13.421 9.90487 13.4136 10.0186C13.4058 10.1497 13.4073 10.2808 13.4087 10.4118Z" fill="black"/>
<path d="M12.0526 18.8485C9.25361 18.8301 6.74074 18.1112 4.46999 16.5961C4.00777 16.2879 3.56755 15.9504 3.14937 15.5799C3.1127 15.5469 3.07599 15.5139 3.04665 15.4735C3.00629 15.4185 2.97695 15.3525 3.02465 15.2864C3.07234 15.2131 3.15305 15.2057 3.22275 15.2388C3.38415 15.3158 3.53824 15.4002 3.69596 15.4809C5.14133 16.2439 6.66371 16.7942 8.25947 17.1426C9.70481 17.4581 11.1648 17.6049 12.6469 17.5645C14.7636 17.5058 16.8032 17.0803 18.7658 16.2915C18.8612 16.2512 18.9602 16.2109 19.0593 16.1888C19.1987 16.1631 19.3381 16.1815 19.4005 16.3319C19.4591 16.4713 19.3821 16.5813 19.2794 16.6694C19.206 16.7317 19.1216 16.7831 19.0373 16.8381C17.7717 17.6599 16.385 18.1881 14.9177 18.5146C13.9492 18.7348 12.9661 18.8411 12.0526 18.8485Z" fill="#FF9900"/>
<path d="M19.1143 15.5799C18.6924 15.5762 18.2742 15.6313 17.856 15.6753C17.7753 15.6826 17.6836 15.7046 17.6469 15.6166C17.6029 15.5175 17.6873 15.4588 17.757 15.4112C18.2779 15.0664 18.8612 14.9306 19.4738 14.8976C19.8957 14.8719 20.3139 14.8903 20.7247 15.015C20.9118 15.07 21.0035 15.1801 20.9999 15.3708C20.9779 16.3906 20.6367 17.2784 19.8994 18.0011C19.8737 18.0268 19.8443 18.0488 19.815 18.0708C19.749 18.1185 19.6683 18.1625 19.5985 18.1038C19.5325 18.0488 19.5692 17.9681 19.5985 17.902C19.815 17.3628 20.0351 16.8272 20.1414 16.2513C20.1561 16.1779 20.1598 16.1045 20.1635 16.0348C20.1671 15.7963 20.0828 15.6937 19.848 15.635C19.6022 15.5689 19.3564 15.5799 19.1143 15.5799Z" fill="#FF9900"/>
</g>
</svg>
