<svg width="24" height="24" viewBox="0 0 24 24" fill="none" xmlns="http://www.w3.org/2000/svg">
<circle cx="11.9603" cy="11.9603" r="11.9008" fill="#DE5833"/>
<path fill-rule="evenodd" clip-rule="evenodd" d="M19.6959 4.22479C20.6876 5.21653 21.481 6.38678 22.0364 7.69587C22.6116 9.04463 22.8893 10.4727 22.8893 11.9603C22.8893 13.4479 22.6116 14.876 22.0364 16.2248C21.481 17.514 20.7075 18.6843 19.6959 19.6959C18.7042 20.6876 17.5339 21.481 16.2248 22.0364C14.8761 22.5917 13.448 22.8893 11.9604 22.8893C10.4728 22.8893 9.04466 22.6116 7.6959 22.0364C6.40664 21.481 5.23639 20.7074 4.22482 19.6959C3.23309 18.7041 2.4397 17.5339 1.88433 16.2248C1.32895 14.876 1.03143 13.4281 1.03143 11.9603C1.03143 10.4727 1.30912 9.04463 1.88433 7.69587C2.4397 6.40661 3.21325 5.23636 4.22482 4.22479C5.21656 3.23306 6.38681 2.43967 7.6959 1.8843C9.04466 1.32892 10.4728 1.0314 11.9604 1.0314C13.448 1.0314 14.8761 1.30909 16.2248 1.8843C17.5141 2.43967 18.6843 3.21322 19.6959 4.22479ZM12.0397 15.4909C12.0397 17.7124 13.7058 20.7074 14.3405 21.7785C18.7637 20.7074 22.0562 16.7207 22.0562 11.9405C22.0562 6.34711 17.5339 1.82479 11.9405 1.82479C6.34714 1.82479 1.82482 6.36694 1.82482 11.9405C1.82482 16.324 4.62152 20.0529 8.50912 21.4612C7.99342 19.2992 6.52565 13.1107 6.18846 9.63967C5.95044 7.18016 7.27937 5.85124 9.83804 5.51405C8.7273 5.15702 6.76366 5.2562 6.76366 5.2562C6.80333 4.58182 7.79507 4.44297 7.79507 4.44297C7.27937 4.18512 6.82317 4.04628 6.82317 4.04628C9.56036 3.66942 11.286 4.60165 12.0199 5.57355C14.9951 6.2876 15.4711 9.69917 15.4711 10.6711C15.4711 12.5992 14.707 12.6413 13.8999 12.6858C12.9967 12.7356 12.0397 12.7884 12.0397 15.4909Z" fill="white"/>
<path fill-rule="evenodd" clip-rule="evenodd" d="M11.405 13.6066C11.405 12.2975 13.1901 11.881 13.8645 11.881C15.6893 11.881 18.2678 10.7107 18.9025 10.7306C19.557 10.7504 19.9736 11.0083 19.9736 11.3058C19.9736 11.7422 16.324 13.3884 14.9157 13.2496C13.567 13.1306 13.2496 13.2694 13.2496 13.8248C13.2496 14.3008 14.2215 14.7372 15.2926 14.7372C16.8992 14.7372 18.4661 14.0231 18.9422 14.3603C19.3587 14.6579 17.8512 15.7289 16.1256 15.7289C14.4 15.7289 11.405 14.9157 11.405 13.6066Z" fill="#FED30A"/>
<path d="M14.5785 8.05289C14.1025 7.43802 13.2496 7.41818 12.9521 8.13223C13.4083 7.77521 13.9637 7.69587 14.5785 8.05289Z" fill="#2D4F8D"/>
<path d="M9.26281 8.07272C8.60827 7.67603 7.51736 7.63636 7.57686 8.88595C7.91405 8.11239 8.35041 7.97355 9.26281 8.07272Z" fill="#2D4F8D"/>
<path fill-rule="evenodd" clip-rule="evenodd" d="M13.5273 9.87769C13.5273 9.52067 13.8248 9.22314 14.1818 9.22314C14.5389 9.22314 14.8364 9.52067 14.8364 9.87769C14.8364 10.2347 14.5389 10.5322 14.1818 10.5322C13.8248 10.5322 13.5273 10.2347 13.5273 9.87769ZM14.2215 9.61984C14.2215 9.73885 14.3207 9.81819 14.4198 9.81819C14.519 9.81819 14.5984 9.73885 14.6182 9.61984C14.6182 9.50083 14.5389 9.42149 14.4198 9.42149C14.3008 9.42149 14.2215 9.52067 14.2215 9.61984Z" fill="#2D4F8D"/>
<path fill-rule="evenodd" clip-rule="evenodd" d="M8.3504 10.3339C8.3504 9.91736 8.68759 9.58017 9.10412 9.58017C9.52065 9.58017 9.85784 9.91736 9.85784 10.3339C9.85784 10.7504 9.52065 11.0876 9.10412 11.0876C8.68759 11.0876 8.3504 10.7504 8.3504 10.3339ZM9.16363 10.0562C9.16363 10.1752 9.2628 10.2744 9.38181 10.2744C9.50082 10.2744 9.59999 10.1752 9.59999 10.0562C9.59999 9.93719 9.50082 9.83802 9.38181 9.83802C9.2628 9.83802 9.16363 9.93719 9.16363 10.0562Z" fill="#2D4F8D"/>
<path d="M7.45787 6.36696C6.50581 7.06117 6.06944 8.13225 6.20829 9.63969C6.54548 13.1108 8.01324 19.319 8.52895 21.481C8.70746 21.5405 8.88597 21.6 9.06448 21.6595C8.74713 20.3504 7.21986 13.9637 6.54548 9.06448C6.36696 7.75539 6.86283 6.98183 7.45787 6.36696Z" fill="#D5D7D8"/>
<path d="M9.81819 5.51405C9.89753 5.51405 9.95703 5.49422 9.95703 5.49422C8.92563 4.99835 7.29918 4.97852 6.86282 4.97852C6.82315 5.05785 6.78348 5.15703 6.78348 5.2562C6.76364 5.27604 8.68761 5.15703 9.81819 5.51405Z" fill="#D5D7D8"/>
<path d="M7.95376 4.44299C7.6364 4.2248 7.37855 4.08596 7.21988 4.00662C7.08103 4.02646 6.96202 4.02646 6.82318 4.04629C6.82318 4.04629 7.27938 4.18513 7.79508 4.44299C7.79508 4.44299 7.77525 4.44299 7.75541 4.44299C7.87442 4.44299 7.95376 4.44299 7.95376 4.44299Z" fill="#D5D7D8"/>
<path d="M15.9471 17.6331C15.6099 17.5537 14.3008 18.486 13.805 18.843C13.7851 18.7438 13.7653 18.6645 13.7454 18.6248C13.6859 18.4265 12.4165 18.5455 12.119 18.8628C11.3256 18.486 9.73884 17.7521 9.719 18.2083C9.6595 18.8033 9.719 21.2827 10.0364 21.4612C10.2744 21.6 11.6231 20.8661 12.2975 20.4893C12.2975 20.4893 12.2975 20.4893 12.3173 20.4893C12.7339 20.5884 13.5074 20.4893 13.7851 20.3107C13.8248 20.2909 13.8446 20.2512 13.8645 20.2116C14.4793 20.4496 15.8083 20.9256 16.0859 20.8265C16.443 20.7273 16.3636 17.7322 15.9471 17.6331Z" fill="#67BD47"/>
<path d="M12.3173 20.4893C11.9008 20.4099 12.0397 19.9934 12.0397 19.0215V19.0215C11.9405 19.081 11.8611 19.1603 11.8611 19.2397C11.8611 20.2116 11.7025 20.6479 12.1388 20.7074C12.5554 20.8066 13.3289 20.7074 13.6463 20.5289C13.7058 20.4893 13.7256 20.4298 13.7454 20.3306C13.4479 20.5091 12.714 20.5884 12.3173 20.4893Z" fill="#43A347"/>
</svg>
