<svg width="24" height="24" viewBox="0 0 24 24" fill="none" xmlns="http://www.w3.org/2000/svg">
<path fill-rule="evenodd" clip-rule="evenodd" d="M9.50385 4.4459C7.52352 5.12349 5.83609 6.60546 4.8962 8.48087C4.56833 9.12786 4.33227 9.8142 4.188 10.5268C3.82953 12.2929 4.07871 14.177 4.89183 15.7858C5.42079 16.835 6.18145 17.7705 7.09948 18.5006C7.96942 19.1913 8.97926 19.7071 10.0547 19.9913C11.4099 20.3541 12.8525 20.3454 14.2164 20.035C15.4492 19.7509 16.6164 19.1607 17.5476 18.3039C18.5312 17.3989 19.235 16.2099 19.6066 14.929C20.0131 13.5345 20.0656 12.0438 19.812 10.6099C17.2634 10.6099 14.7104 10.6099 12.1618 10.6099C12.1618 11.6678 12.1618 12.7257 12.1618 13.7836C13.6394 13.7836 15.117 13.7836 16.5945 13.7836C16.4241 14.7978 15.8208 15.7246 14.9683 16.2973C14.4306 16.6601 13.8142 16.8918 13.176 17.0055C12.5377 17.1147 11.8732 17.1279 11.235 17.0011C10.5836 16.8699 9.96724 16.5989 9.42516 16.2186C8.55959 15.6109 7.89948 14.7235 7.56287 13.7224C7.21751 12.7038 7.21314 11.5716 7.56287 10.5574C7.80768 9.84043 8.20986 9.18032 8.74319 8.63825C9.39893 7.96502 10.2514 7.48415 11.1738 7.28743C11.9607 7.12131 12.7913 7.15191 13.5607 7.3836C14.2164 7.58032 14.8197 7.94316 15.3137 8.41529C15.812 7.91693 16.3104 7.41857 16.8088 6.92021C17.0711 6.65355 17.3465 6.39562 17.6 6.12021C16.8437 5.42076 15.952 4.85682 14.9815 4.49835C13.2328 3.85136 11.2656 3.83825 9.50385 4.4459Z" fill="white"/>
<path fill-rule="evenodd" clip-rule="evenodd" d="M9.50387 4.4459C11.2613 3.83825 13.2328 3.85136 14.9815 4.49399C15.952 4.85246 16.8394 5.41202 17.6 6.11584C17.3465 6.39125 17.071 6.64918 16.8087 6.91584C16.3104 7.4142 15.812 7.91257 15.3137 8.41093C14.8197 7.93879 14.2164 7.58032 13.5607 7.37923C12.7912 7.14754 11.9607 7.11256 11.1738 7.28306C10.2557 7.47978 9.40328 7.96065 8.74317 8.63388C8.20984 9.17158 7.80765 9.83606 7.56285 10.553C6.67541 9.86229 5.78798 9.17595 4.89618 8.48524C5.83611 6.60546 7.52355 5.12349 9.50387 4.4459Z" fill="#EA4335"/>
<path fill-rule="evenodd" clip-rule="evenodd" d="M4.19235 10.5224C4.33661 9.81421 4.57268 9.1235 4.90055 8.4765C5.78798 9.16721 6.67541 9.85355 7.56721 10.5443C7.21749 11.5628 7.21749 12.6951 7.56721 13.7092C6.67978 14.4 5.79235 15.0907 4.90492 15.777C4.08306 14.1727 3.83388 12.2885 4.19235 10.5224Z" fill="#FBBC05"/>
<path fill-rule="evenodd" clip-rule="evenodd" d="M12.1618 10.6055C14.7104 10.6055 17.2634 10.6055 19.812 10.6055C20.0656 12.035 20.0088 13.5257 19.6066 14.9246C19.235 16.2055 18.5312 17.3945 17.5476 18.2994C16.6864 17.6306 15.8252 16.9617 14.9639 16.2929C15.8164 15.7202 16.4196 14.7934 16.5901 13.7792C15.1125 13.7792 13.6349 13.7792 12.1573 13.7792C12.1618 12.7213 12.1618 11.6634 12.1618 10.6055Z" fill="#4285F4"/>
<path fill-rule="evenodd" clip-rule="evenodd" d="M4.89618 15.7814C5.78361 15.0951 6.67104 14.4044 7.55847 13.7137C7.89946 14.7147 8.5552 15.6022 9.42077 16.2098C9.96285 16.5902 10.5836 16.8612 11.2306 16.9923C11.8689 17.1235 12.529 17.106 13.1716 16.9967C13.8099 16.8831 14.4262 16.6514 14.9639 16.2885C15.8251 16.9574 16.6863 17.6262 17.5475 18.2951C16.6164 19.1563 15.4492 19.7421 14.2164 20.0262C12.8525 20.3367 11.4098 20.3454 10.0546 19.9825C8.97924 19.6984 7.9694 19.1869 7.09946 18.4918C6.1858 17.7661 5.42514 16.8306 4.89618 15.7814Z" fill="#34A853"/>
</svg>
