<svg width="24" height="24" viewBox="0 0 24 24" fill="none" xmlns="http://www.w3.org/2000/svg">
<path d="M1.63636 21.0046H5.45455V11.7319L0 7.64101V19.3683C0 20.2737 0.733636 21.0046 1.63636 21.0046Z" fill="#4285F4"/>
<path d="M18.5454 21.0046H22.3636C23.2691 21.0046 24 20.271 24 19.3683V7.64101L18.5454 11.7319" fill="#34A853"/>
<path d="M18.5454 4.64101V11.7319L24 7.64101V5.45919C24 3.43555 21.69 2.28191 20.0727 3.49555" fill="#FBBC04"/>
<path d="M5.45456 11.7319V4.64101L12 9.5501L18.5455 4.64101V11.7319L12 16.641" fill="#EA4335"/>
<path d="M0 5.45919V7.64101L5.45455 11.7319V4.64101L3.92727 3.49555C2.30727 2.28191 0 3.43555 0 5.45919" fill="#C5221F"/>
</svg>
