<svg width="24" height="24" viewBox="0 0 24 24" fill="none" xmlns="http://www.w3.org/2000/svg">
<g clip-path="url(#clip0_3_885)">
<path d="M6.08577 23.9151C4.65848 23.8502 3.88314 23.6127 3.36743 23.4115C2.6841 23.1455 2.19693 22.8288 1.68407 22.3166C1.17122 21.8045 0.853806 21.3173 0.589176 20.634C0.388029 20.1183 0.150504 19.3429 0.0855946 17.9157C0.0142658 16.3728 0 15.9099 0 12.0011C0 8.09225 0.0156923 7.63004 0.0848813 6.08577C0.14979 4.65848 0.388742 3.88457 0.588463 3.36743C0.854519 2.6841 1.17193 2.19693 1.68336 1.68336C2.1955 1.17122 2.68268 0.853092 3.36672 0.588463C3.88243 0.387315 4.65777 0.14979 6.08506 0.0848813C7.62861 0.0142658 8.09225 0 11.9996 0C15.9085 0 16.3707 0.0156923 17.9149 0.0848813C19.3422 0.14979 20.1161 0.388742 20.6333 0.588463C21.3166 0.853092 21.8038 1.17122 22.3166 1.68336C22.8295 2.1955 23.1455 2.68339 23.4115 3.36672C23.6127 3.88243 23.8502 4.65777 23.9151 6.08506C23.9857 7.62933 24 8.09154 24 12.0004C24 15.9077 23.9857 16.3714 23.9151 17.9157C23.8502 19.3429 23.6113 20.1183 23.4115 20.634C23.1455 21.3173 22.8288 21.8045 22.3166 22.3166C21.8045 22.8288 21.3166 23.1455 20.6333 23.4115C20.1176 23.6127 19.3422 23.8502 17.9149 23.9151C16.3721 23.9857 15.9085 24 11.9996 24C8.09225 24 7.62862 23.9864 6.08577 23.9151" fill="url(#paint0_radial_3_885)"/>
<path d="M6.08577 23.9151C4.65848 23.8502 3.88314 23.6127 3.36743 23.4115C2.6841 23.1455 2.19693 22.8288 1.68407 22.3166C1.17122 21.8045 0.853806 21.3173 0.589176 20.634C0.388029 20.1183 0.150504 19.3429 0.0855946 17.9157C0.0142658 16.3728 0 15.9099 0 12.0011C0 8.09225 0.0156923 7.63004 0.0848813 6.08577C0.14979 4.65848 0.388742 3.88457 0.588463 3.36743C0.854519 2.6841 1.17193 2.19693 1.68336 1.68336C2.1955 1.17122 2.68268 0.853092 3.36672 0.588463C3.88243 0.387315 4.65777 0.14979 6.08506 0.0848813C7.62861 0.0142658 8.09225 0 11.9996 0C15.9085 0 16.3707 0.0156923 17.9149 0.0848813C19.3422 0.14979 20.1161 0.388742 20.6333 0.588463C21.3166 0.853092 21.8038 1.17122 22.3166 1.68336C22.8295 2.1955 23.1455 2.68339 23.4115 3.36672C23.6127 3.88243 23.8502 4.65777 23.9151 6.08506C23.9857 7.62933 24 8.09154 24 12.0004C24 15.9077 23.9857 16.3714 23.9151 17.9157C23.8502 19.3429 23.6113 20.1183 23.4115 20.634C23.1455 21.3173 22.8288 21.8045 22.3166 22.3166C21.8045 22.8288 21.3166 23.1455 20.6333 23.4115C20.1176 23.6127 19.3422 23.8502 17.9149 23.9151C16.3721 23.9857 15.9085 24 11.9996 24C8.09225 24 7.62862 23.9864 6.08577 23.9151" fill="url(#paint1_radial_3_885)"/>
<path d="M9.05336 12.0511C9.05336 10.4097 10.3836 9.07882 12.0249 9.07882C13.6663 9.07882 14.9972 10.4097 14.9972 12.0511C14.9972 13.6924 13.6663 15.0233 12.0249 15.0233C10.3836 15.0233 9.05336 13.6924 9.05336 12.0511V12.0511ZM7.44661 12.0511C7.44661 14.5797 9.49631 16.6294 12.0249 16.6294C14.5535 16.6294 16.6032 14.5797 16.6032 12.0511C16.6032 9.52249 14.5535 7.47279 12.0249 7.47279C9.49631 7.47279 7.44668 9.52234 7.44668 12.0511H7.44661ZM15.7146 7.29126C15.7145 7.50287 15.7772 7.70975 15.8947 7.88575C16.0122 8.06175 16.1792 8.19895 16.3747 8.28001C16.5702 8.36107 16.7853 8.38234 16.9929 8.34114C17.2004 8.29994 17.3911 8.19811 17.5408 8.04854C17.6905 7.89897 17.7925 7.70837 17.8338 7.50084C17.8752 7.29331 17.8541 7.07817 17.7732 6.88264C17.6923 6.6871 17.5552 6.51994 17.3793 6.40231C17.2034 6.28467 16.9966 6.22184 16.785 6.22176H16.7845C16.5009 6.22189 16.2289 6.3346 16.0283 6.53513C15.8277 6.73565 15.7149 7.00761 15.7146 7.29126V7.29126ZM8.42282 19.3086C7.55353 19.269 7.08105 19.1242 6.76706 19.0019C6.35079 18.8399 6.05377 18.6468 5.7415 18.335C5.42922 18.0231 5.23592 17.7264 5.07457 17.3101C4.95217 16.9963 4.80738 16.5237 4.76786 15.6544C4.72464 14.7146 4.716 14.4322 4.716 12.0512C4.716 9.67021 4.72535 9.38867 4.76786 8.44806C4.80745 7.57878 4.95332 7.10709 5.07457 6.79231C5.23663 6.37604 5.42965 6.07903 5.7415 5.76675C6.05335 5.45447 6.35007 5.26117 6.76706 5.09983C7.08091 4.97743 7.55353 4.83263 8.42282 4.79311C9.36264 4.74989 9.64496 4.74126 12.0249 4.74126C14.4049 4.74126 14.6875 4.75046 15.6281 4.79326C16.4974 4.83284 16.9691 4.97871 17.2838 5.09997C17.7001 5.26132 17.9971 5.45504 18.3094 5.76689C18.6217 6.07874 18.8143 6.37618 18.9763 6.79246C19.0987 7.1063 19.2435 7.57893 19.283 8.44821C19.3263 9.38882 19.3349 9.67035 19.3349 12.0514C19.3349 14.4324 19.3263 14.7139 19.283 15.6545C19.2435 16.5238 19.0979 16.9963 18.9763 17.3103C18.8143 17.7266 18.6213 18.0236 18.3094 18.3351C17.9976 18.6467 17.7001 18.84 17.2838 19.0021C16.97 19.1245 16.4974 19.2693 15.6281 19.3088C14.6883 19.352 14.4059 19.3606 12.0249 19.3606C9.64389 19.3606 9.36236 19.352 8.42282 19.3088V19.3086ZM8.34899 3.18901C7.39982 3.23223 6.75123 3.38273 6.18481 3.60314C5.59856 3.83075 5.10161 4.13611 4.60537 4.63156C4.10914 5.127 3.80457 5.62402 3.57696 6.21099C3.35655 6.77776 3.20605 7.426 3.16282 8.37517C3.11888 9.32583 3.10883 9.62977 3.10883 12.0511C3.10883 14.4724 3.11888 14.7763 3.16282 15.727C3.20605 16.6762 3.35655 17.3244 3.57696 17.8912C3.80457 18.4774 4.10921 18.9754 4.60537 19.4706C5.10154 19.9659 5.59784 20.2708 6.18481 20.499C6.7523 20.7194 7.39982 20.8699 8.34899 20.9132C9.30016 20.9564 9.60359 20.9672 12.0249 20.9672C14.4462 20.9672 14.7502 20.9571 15.7008 20.9132C16.6501 20.8699 17.2982 20.7194 17.865 20.499C18.4513 20.2708 18.9482 19.9661 19.4445 19.4706C19.9407 18.9752 20.2446 18.4774 20.4729 17.8912C20.6933 17.3244 20.8445 16.6762 20.887 15.727C20.9302 14.7756 20.9403 14.4724 20.9403 12.0511C20.9403 9.62977 20.9302 9.32583 20.887 8.37517C20.8438 7.42593 20.6933 6.77741 20.4729 6.21099C20.2446 5.62474 19.9399 5.12779 19.4445 4.63156C18.949 4.13532 18.4513 3.83075 17.8657 3.60314C17.2982 3.38273 16.65 3.23152 15.7016 3.18901C14.7507 3.14557 14.447 3.13501 12.026 3.13501C9.60502 3.13501 9.30052 3.14507 8.34935 3.18901" fill="white"/>
</g>
<defs>
<radialGradient id="paint0_radial_3_885" cx="0" cy="0" r="1" gradientUnits="userSpaceOnUse" gradientTransform="translate(1.55326 23.4742) scale(30.4711)">
<stop offset="0.09" stop-color="#FA8F21"/>
<stop offset="0.78" stop-color="#D82D7E"/>
</radialGradient>
<radialGradient id="paint1_radial_3_885" cx="0" cy="0" r="1" gradientUnits="userSpaceOnUse" gradientTransform="translate(16.624 22.7036) scale(26.8148)">
<stop offset="0.64" stop-color="#8C3AAA" stop-opacity="0"/>
<stop offset="1" stop-color="#8C3AAA"/>
</radialGradient>
<clipPath id="clip0_3_885">
<rect width="24" height="24" fill="white"/>
</clipPath>
</defs>
</svg>
