<svg width="24" height="24" viewBox="0 0 24 24" fill="none" xmlns="http://www.w3.org/2000/svg">
<rect width="24" height="24" fill="black"/>
<path d="M21.2429 15.5521H22.7499V18H17.9974V11.4285C17.9974 9.36589 17.3403 8.59075 16.0648 8.59075C14.519 8.59075 13.9007 9.76317 13.9007 11.3807V15.5058H15.4077V17.9567H10.6612V11.424C10.6612 9.36141 10.0041 8.58626 8.72858 8.58626C7.18277 8.58626 6.31801 9.75869 6.31801 11.3762V15.5013H8.71961V17.9567H1.76871V15.5088H3.19354V9.12991H1.70001V6.21304H5.99392V8.05606C6.87972 6.74049 8.3752 5.96741 9.96074 6.00544C11.6229 5.91482 13.1344 6.96433 13.6304 8.55341C14.1641 6.99184 15.6518 5.95926 17.3015 6.00544C18.3833 5.95604 19.4337 6.37714 20.1818 7.16021C20.93 7.94328 21.3027 9.01174 21.2041 10.0903V15.5521H21.2429Z" fill="white"/>
</svg>
