<svg width="24" height="24" viewBox="0 0 24 24" fill="none" xmlns="http://www.w3.org/2000/svg">
<path d="M2.09937 1.00002C0.791706 1.08524 0 1.83174 0 3.1595V11.1111C0 17.5695 6.42339 22.6451 11.98 22.605C18.228 22.5599 24.0001 17.2839 24.0001 11.1111V3.1595C24.0001 1.82673 23.1583 1.07516 21.8406 1.00002H2.09937V1.00002ZM7.15994 7.4685L11.98 12.048L16.805 7.4685C18.9645 6.56162 19.9065 9.02675 19.0196 9.74827L12.7366 15.7457C12.5312 15.9412 11.4339 15.9412 11.2285 15.7457L4.94535 9.74821C4.09853 8.95155 5.20085 6.44634 7.15994 7.4685Z" fill="#EF4056"/>
</svg>
