<svg width="24" height="24" viewBox="0 0 24 24" fill="none" xmlns="http://www.w3.org/2000/svg">
<circle cx="12" cy="12" r="12" fill="#FF4500"/>
<path fill-rule="evenodd" clip-rule="evenodd" d="M18.2456 10.2456C19.214 10.2456 20 11.0316 20 12C20 12.7158 19.5649 13.3333 18.9895 13.614C19.0176 13.7825 19.0316 13.9509 19.0316 14.1333C19.0316 16.8281 15.9018 19.0035 12.0281 19.0035C8.15439 19.0035 5.02457 16.8281 5.02457 14.1333C5.02457 13.9509 5.0386 13.7684 5.06667 13.6C4.44913 13.3193 4.02808 12.7158 4.02808 12C4.02808 11.0316 4.81404 10.2456 5.78246 10.2456C6.24562 10.2456 6.68071 10.4421 6.98948 10.7368C8.1965 9.85263 9.86667 9.30526 11.7333 9.24912L12.6175 5.06667C12.6456 4.98245 12.6877 4.91228 12.7579 4.87017C12.8281 4.82807 12.9123 4.81403 12.9965 4.82807L15.9018 5.44561C16.0983 5.02456 16.5193 4.74386 17.0105 4.74386C17.6983 4.74386 18.2597 5.30526 18.2597 5.99298C18.2597 6.6807 17.6983 7.2421 17.0105 7.2421C16.3368 7.2421 15.7895 6.70877 15.7614 6.04912L13.1649 5.50175L12.3649 9.24912C14.1895 9.3193 15.8456 9.8807 17.0386 10.7368C17.3474 10.4281 17.7684 10.2456 18.2456 10.2456ZM9.24913 12C8.56141 12 8.00001 12.5614 8.00001 13.2491C8.00001 13.9368 8.56141 14.4982 9.24913 14.4982C9.93685 14.4982 10.4983 13.9368 10.4983 13.2491C10.4983 12.5614 9.93685 12 9.24913 12ZM14.9754 16.5474C14.1193 17.4035 12.4912 17.4596 12.014 17.4596C11.5368 17.4596 9.89474 17.3895 9.05264 16.5474C8.92632 16.4211 8.92632 16.2105 9.05264 16.0842C9.17895 15.9579 9.38948 15.9579 9.5158 16.0842C10.0491 16.6175 11.2 16.814 12.0281 16.814C12.8561 16.814 13.993 16.6175 14.5404 16.0842C14.6667 15.9579 14.8772 15.9579 15.0035 16.0842C15.1018 16.2246 15.1018 16.4211 14.9754 16.5474ZM13.5018 13.2491C13.5018 13.9368 14.0632 14.4982 14.7509 14.4982C15.4386 14.4982 16 13.9368 16 13.2491C16 12.5614 15.4386 12 14.7509 12C14.0632 12 13.5018 12.5614 13.5018 13.2491Z" fill="white"/>
</svg>
