<svg width="24" height="24" viewBox="0 0 24 24" fill="none" xmlns="http://www.w3.org/2000/svg">
<rect width="24" height="24" rx="2" fill="white"/>
<mask id="mask0_3_907" style="mask-type:luminance" maskUnits="userSpaceOnUse" x="0" y="0" width="24" height="24">
<rect width="24" height="24" rx="2" fill="white"/>
</mask>
<g mask="url(#mask0_3_907)">
<rect width="24" height="24" fill="black"/>
<path fill-rule="evenodd" clip-rule="evenodd" d="M21.475 6.20167C21.475 6.27 21.4534 6.33167 21.4117 6.38833C21.3684 6.44333 21.3234 6.47167 21.2717 6.47167C20.8567 6.51167 20.515 6.645 20.2517 6.87333C19.9867 7.1 19.715 7.535 19.4334 8.175L15.1334 17.865C15.105 17.955 15.0267 18 14.8967 18C14.795 18 14.7167 17.955 14.66 17.865L12.2484 12.8217L9.47502 17.865C9.41836 17.955 9.34002 18 9.23836 18C9.11502 18 9.03336 17.955 8.99336 17.865L4.76836 8.175C4.50502 7.57333 4.22669 7.15333 3.93336 6.915C3.64169 6.67667 3.23336 6.52833 2.71169 6.47167C2.66669 6.47167 2.62336 6.44833 2.58502 6.4C2.54502 6.35333 2.52502 6.29833 2.52502 6.23667C2.52502 6.07833 2.57002 6 2.66002 6C3.03669 6 3.43002 6.01667 3.84169 6.05C4.22336 6.085 4.58336 6.10167 4.92002 6.10167C5.26336 6.10167 5.66836 6.085 6.13502 6.05C6.62336 6.01667 7.05669 6 7.43336 6C7.52336 6 7.56836 6.07833 7.56836 6.23667C7.56836 6.39333 7.54002 6.47167 7.48502 6.47167C7.10836 6.5 6.81169 6.59667 6.59502 6.75833C6.37836 6.92167 6.27002 7.135 6.27002 7.4C6.27002 7.535 6.31502 7.70333 6.40502 7.905L9.89669 15.79L11.8784 12.0467L10.0317 8.175C9.70002 7.485 9.42669 7.03833 9.21336 6.83833C9.00002 6.64 8.67669 6.51667 8.24336 6.47167C8.20336 6.47167 8.16669 6.44833 8.13002 6.4C8.09336 6.35333 8.07502 6.29833 8.07502 6.23667C8.07502 6.07833 8.11336 6 8.19336 6C8.57002 6 8.91502 6.01667 9.23002 6.05C9.53336 6.085 9.85669 6.10167 10.2 6.10167C10.5367 6.10167 10.8934 6.085 11.27 6.05C11.6584 6.01667 12.04 6 12.4167 6C12.5067 6 12.5517 6.07833 12.5517 6.23667C12.5517 6.39333 12.525 6.47167 12.4684 6.47167C11.715 6.52333 11.3384 6.73667 11.3384 7.11333C11.3384 7.28167 11.425 7.54333 11.6 7.89667L12.8217 10.3767L14.0367 8.10833C14.205 7.78833 14.29 7.51833 14.29 7.29833C14.29 6.78167 13.9134 6.50667 13.16 6.47167C13.0917 6.47167 13.0584 6.39333 13.0584 6.23667C13.0584 6.18 13.075 6.12667 13.1084 6.07667C13.1434 6.025 13.1767 6 13.21 6C13.48 6 13.8117 6.01667 14.205 6.05C14.5817 6.085 14.8917 6.10167 15.1334 6.10167C15.3067 6.10167 15.5634 6.08667 15.9 6.05833C16.3267 6.02 16.685 6 16.9717 6C17.0384 6 17.0717 6.06667 17.0717 6.20167C17.0717 6.38167 17.01 6.47167 16.8867 6.47167C16.4484 6.51667 16.095 6.63833 15.8284 6.835C15.5617 7.03167 15.2284 7.47833 14.83 8.175L13.21 11.17L15.4034 15.6383L18.6417 8.10833C18.7534 7.83333 18.81 7.58 18.81 7.35C18.81 6.79833 18.4334 6.50667 17.68 6.47167C17.6117 6.47167 17.5784 6.39333 17.5784 6.23667C17.5784 6.07833 17.6284 6 17.73 6C18.005 6 18.3317 6.01667 18.7084 6.05C19.0567 6.085 19.35 6.10167 19.585 6.10167C19.8334 6.10167 20.12 6.085 20.445 6.05C20.7834 6.01667 21.0867 6 21.3567 6C21.435 6 21.475 6.06667 21.475 6.20167Z" fill="white"/>
</g>
</svg>
