<svg xmlns="http://www.w3.org/2000/svg" viewBox="0 0 384 512"><path fill="#FF1A1A" d="M42.9 240.3l99.6 48.6c19.2 9.4 16.2 37.5-4.5 42.7L30.5 358.5a22.8 22.8 0 0 1 -28.2-19.6 197.2 197.2 0 0 1 9-85.3 22.8 22.8 0 0 1 31.6-13.2zm44 239.3a199.4 199.4 0 0 0 79.4 32.1 22.8 22.8 0 0 0 25.2-21.4l11.9-129.8c2.3-24.1-26.2-38.2-43.6-21.5L69.4 425.9a22.8 22.8 0 0 0 17.5 53.7zM340.1 346.6a199.5 199.5 0 0 0 33.4-71.2 22.8 22.8 0 0 0 -16.4-27.1l-127.4-36.5c-24.1-6.9-43.6 16.2-29.9 35.3l76.9 107.9a22.8 22.8 0 0 0 63.4-8.4zM153.3 72.3l70.4 17.9c20.7 5.2 32.4-17.3 18.2-34.6L172.1 1.2A22.8 22.8 0 0 0 135 7.7 197.6 197.6 0 0 0 78.3 63a22.8 22.8 0 0 0 9.1 35.3l65.9-26zM305.7 255.8L185.3 219.3c-22.7-6.9-43.6 15.3-31.1 33.4l70.3 101.7a22.8 22.8 0 0 0 64.2-11.1 197 197 0 0 0 17-87.5z"/></svg>
