<?xml version="1.0" encoding="iso-8859-1"?>
<!-- Uploaded to: SVG Repo, www.svgrepo.com, Generator: SVG Repo Mixer Tools -->
<svg fill="#000000" height="800px" width="800px" version="1.1" id="Layer_1" xmlns="http://www.w3.org/2000/svg" xmlns:xlink="http://www.w3.org/1999/xlink" 
	 viewBox="0 0 484.996 484.996" xml:space="preserve">
<path d="M413.966,71.024C368.166,25.224,307.271,0,242.499,0C177.724,0,116.827,25.225,71.024,71.028
	C25.223,116.828,0,177.724,0,242.497c0,64.773,25.224,125.668,71.024,171.469c45.803,45.802,106.703,71.028,171.481,71.03
	c64.773,0,125.668-25.223,171.465-71.021c45.803-45.802,71.026-106.7,71.025-171.476
	C484.994,177.724,459.769,116.826,413.966,71.024z M257.497,30.527c49.08,3.4,94.887,23.451,130.839,57.428
	c-37.814,30.128-83.356,47.867-130.839,50.965L257.497,30.527z M227.496,138.92c-47.481-3.098-93.022-20.838-130.837-50.967
	c35.952-33.975,81.758-54.026,130.837-57.426L227.496,138.92z M227.496,168.97l0,58.523H30.627
	c2.935-41.829,18.17-82.942,45.682-117.417C119.756,145.254,172.493,165.799,227.496,168.97z M227.496,257.493l0,58.535
	c-55.003,3.171-107.74,23.715-151.186,58.891c-27.515-34.478-42.75-75.594-45.684-117.426H227.496z M227.496,346.078l0,108.39
	c-49.079-3.403-94.884-23.454-130.835-57.427C134.475,366.915,180.015,349.176,227.496,346.078z M257.496,346.078
	c47.485,3.098,93.028,20.838,130.844,50.966c-35.954,33.979-81.762,54.029-130.844,57.426L257.496,346.078z M257.496,316.028
	l0-58.535H454.47c-2.989,43.172-18.867,83.808-45.769,117.437C365.252,339.747,312.507,319.199,257.496,316.028z M257.496,227.493
	l0-58.523c55.01-3.172,107.753-23.72,151.201-58.902c26.899,33.626,42.779,74.258,45.771,117.425H257.496z"/>
</svg>