<svg width="24" height="24" viewBox="0 0 24 24" fill="none" xmlns="http://www.w3.org/2000/svg">
<path d="M15.7012 21.8633C15.3261 22.5129 14.7863 23.0527 14.1367 23.4277C13.4871 23.8027 12.7501 24 12 24C11.25 24 10.5129 23.8027 9.86328 23.4277C9.21371 23.0527 8.67393 22.5128 8.29883 21.8633H15.7012ZM16.2734 16.9316C16.2734 18.0651 15.8239 19.1526 15.0225 19.9541C14.221 20.7555 13.1334 21.205 12 21.2051C10.8666 21.2051 9.77904 20.7555 8.97754 19.9541C8.17608 19.1526 7.72565 18.0651 7.72559 16.9316H16.2734ZM7.06836 20.9863C5.99302 20.9863 4.96158 20.5592 4.20117 19.7988C3.44081 19.0385 3.01373 18.007 3.01367 16.9316H7.06836V20.9863ZM20.9863 16.9316C20.9863 18.0069 20.5591 19.0385 19.7988 19.7988C19.0385 20.5591 18.0069 20.9862 16.9316 20.9863V16.9316H20.9863ZM7.06836 16.2744C5.93488 16.2744 4.84741 15.8239 4.0459 15.0225C3.24445 14.221 2.79398 13.1334 2.79395 12C2.79397 10.8665 3.24445 9.77903 4.0459 8.97754C4.84741 8.17605 5.93486 7.72657 7.06836 7.72656V16.2744ZM16.9316 7.72656C18.0651 7.72661 19.1526 8.17606 19.9541 8.97754C20.7555 9.77903 21.2051 10.8666 21.2051 12C21.205 13.1334 20.7555 14.221 19.9541 15.0225C19.1526 15.8239 18.0651 16.2744 16.9316 16.2744V7.72656ZM12 7.72559C14.3604 7.72567 16.2734 9.63961 16.2734 12C16.2734 14.3604 14.3603 16.2734 12 16.2734C9.63958 16.2734 7.72562 14.3604 7.72559 12C7.72559 9.63956 9.63956 7.72559 12 7.72559ZM2.13672 15.7012C1.48715 15.3261 0.947332 14.7863 0.572266 14.1367C0.197313 13.4871 2.53837e-05 12.75 0 12C1.66836e-05 11.2499 0.197292 10.5129 0.572266 9.86328C0.947338 9.21364 1.4871 8.67394 2.13672 8.29883V15.7012ZM21.8633 8.29883C22.5128 8.67394 23.0527 9.21368 23.4277 9.86328C23.8027 10.5129 24 11.25 24 12C24 12.75 23.8027 13.4871 23.4277 14.1367C23.0527 14.7863 22.5128 15.3261 21.8633 15.7012V8.29883ZM7.06836 7.06836H3.01367C3.01374 5.9931 3.44086 4.96152 4.20117 4.20117C4.96158 3.44084 5.99303 3.01367 7.06836 3.01367V7.06836ZM12 2.79492C13.1334 2.79497 14.22 3.24542 15.0215 4.04688C15.8229 4.84833 16.2734 5.93497 16.2734 7.06836H7.72559C7.72566 5.93509 8.17629 4.8483 8.97754 4.04688C9.77906 3.24535 10.8665 2.79492 12 2.79492ZM16.9316 3.01367C18.007 3.01372 19.0385 3.44081 19.7988 4.20117C20.5591 4.96153 20.9863 5.99308 20.9863 7.06836H16.9316V3.01367ZM12 0C12.7502 3.17323e-05 13.487 0.198155 14.1367 0.573242C14.7862 0.948293 15.3261 1.48721 15.7012 2.13672H8.29883C8.67392 1.48723 9.21374 0.948267 9.86328 0.573242C10.513 0.19817 11.2498 6.55835e-08 12 0Z" fill="#F40C0C"/>
</svg>
