<svg width="24" height="24" viewBox="0 0 24 24" fill="none" xmlns="http://www.w3.org/2000/svg">
<circle cx="12" cy="12" r="11.5" fill="white"/>
<path fill-rule="evenodd" clip-rule="evenodd" d="M12.0002 23.9991C5.37265 23.9991 0 18.6269 0 11.9998H0.000432581C0.000432581 5.37265 5.37308 0 12.0002 0C18.6273 0 24 5.37265 24 11.9998C24 18.6265 18.6273 23.9991 12.0002 23.9991ZM4.46352 4.50373C1.43408 7.54179 0.535057 12.1066 2.18626 16.0665H2.18583C3.83147 20.0163 7.69056 22.5894 11.9695 22.5898H11.9998C14.8076 22.587 17.4991 21.4685 19.4818 19.4803C21.4645 17.4922 22.5757 14.7976 22.5708 11.9898C22.5708 7.69959 19.9847 3.8324 16.0198 2.19362C12.0552 0.55367 7.49297 1.46566 4.46352 4.50373Z" fill="#FF7950"/>
<path d="M3.20544 12.0002C3.20544 16.8581 7.14366 20.7967 12.0015 20.7967C16.8603 20.7967 20.7985 16.8581 20.7985 12.0002C20.7985 7.14233 16.8603 3.20412 12.0015 3.20412C7.14366 3.20412 3.20544 7.14233 3.20544 12.0002Z" fill="#36ACB8"/>
<path d="M13.1573 5.6839C13.8133 5.68414 14.2532 6.22394 15.0148 6.22394C15.9342 6.18197 16.8507 6.08472 17.7589 5.93292C17.9531 5.90752 18.1491 5.89741 18.3448 5.90265C19.757 7.36804 20.6147 9.27725 20.7736 11.3021L20.7911 11.5657L20.799 11.7806L20.8019 11.9964C20.8026 12.9217 20.6574 13.838 20.3732 14.7142L20.298 14.9329C20.138 14.7068 20.0343 14.444 20.004 14.1673C20.0041 13.8469 20.2644 13.6215 20.1993 13.2308C20.0638 12.8144 19.8304 12.4358 19.5197 12.1273C19.0479 12.0727 18.6032 12.3577 18.4552 12.8089C18.4453 12.9629 18.4136 13.1161 18.3595 13.261C18.2947 13.2913 18.2645 13.3255 18.2003 13.3558C17.515 12.8235 17.8197 11.8266 16.9464 11.3069L16.8448 11.2513L16.5548 11.346C16.4173 11.4895 16.287 11.6398 16.1642 11.7972C15.8549 11.9568 15.6142 12.0883 15.3546 12.2484C15.3542 12.2648 15.3408 12.2777 15.3243 12.2776C15.1591 12.5688 15.4496 12.8298 15.129 13.2161C14.8093 13.6014 14.1947 13.7822 14.0001 14.2835C14.0001 14.5737 13.9698 14.9 13.9698 15.1898C13.8206 15.4134 13.634 15.6103 13.4191 15.7718C12.9348 16.3683 12.7437 17.2444 11.8693 17.2747C11.0943 17.3089 10.8995 15.7212 10.8995 15.1693C10.8997 14.6189 11.2538 14.3575 11.0587 13.7767C10.9593 13.4206 10.8995 12.6749 10.5089 12.514C10.2788 12.4162 10.0394 12.422 9.80969 12.428C9.51121 12.4363 9.22866 12.4436 9.00891 12.223C8.47637 11.6001 8.42386 10.6987 8.88 10.0179C9.15255 9.73974 9.43273 9.46845 9.71985 9.20538C9.91409 8.9796 9.81919 8.60454 9.91418 8.36456C10.0089 8.12362 10.3996 8.0884 10.5597 7.86261C10.5597 7.47157 10.2696 7.41139 10.299 7.02081C10.401 6.86866 10.5672 6.77317 10.7491 6.76007C10.9436 6.92959 11.1612 7.07126 11.3947 7.18097C11.8139 6.98551 11.5245 6.76043 11.7491 6.4046C12.0152 6.10529 12.3554 5.88182 12.7345 5.75714L12.8497 5.72296C12.9582 5.69535 13.0601 5.6839 13.1573 5.6839ZM14.5597 15.511C14.6201 15.504 14.6813 15.5167 14.7345 15.5462C14.9797 15.9022 14.59 16.4829 14.2345 16.6136C14.1372 16.5651 14.0584 16.4858 14.0109 16.388C14.0316 16.0476 14.2114 15.7386 14.4933 15.5521L14.5597 15.511ZM3.29504 10.6995C3.83412 10.8656 4.31581 11.18 4.68469 11.6068C4.85932 11.8168 5.02421 12.0924 5.18372 12.3177C5.5393 12.6737 6.18919 12.7404 6.33411 13.2513C6.39385 13.6114 6.00845 13.8682 5.94446 14.0628C5.87957 14.2582 5.78424 14.4837 5.71985 14.679C5.47485 14.881 5.21574 15.0657 4.94446 15.2308C4.81472 15.4612 4.65468 15.6866 4.52454 15.9114C4.43284 16.0083 4.33737 16.0733 4.24524 16.1624C3.55995 14.8887 3.20065 13.4652 3.19934 12.0189C3.19976 11.772 3.21065 11.5246 3.23157 11.2786C3.24061 11.1632 3.2521 11.0479 3.26575 10.9329L3.29504 10.6995ZM11.3448 8.5296C11.241 8.56862 11.1583 8.65043 11.1193 8.75421C11.1495 8.81953 12.2852 9.72687 12.3146 9.72687C12.4827 9.75486 12.6927 9.76028 12.8849 9.77667L13.0245 9.7923C13.1711 9.8948 13.3457 9.95019 13.5245 9.95245C13.5721 9.92803 13.6214 9.90698 13.672 9.88995L13.7491 9.86749V9.70636C13.7489 9.67705 13.719 9.64178 13.7189 9.61163C13.5092 9.59643 13.3025 9.55265 13.1046 9.48175C12.9733 9.38385 12.8477 9.30576 12.7257 9.21808L12.6046 9.12531L12.1544 9.03058C11.9116 8.82334 11.6387 8.6542 11.3448 8.5296ZM6.0177 5.5462C5.98915 5.6085 5.96961 5.67501 5.96399 5.74249C5.96399 6.06823 6.28939 6.58992 6.05969 6.84601C5.94302 6.97514 5.84404 6.94703 5.73743 6.90558L5.7052 6.89288C5.611 6.85529 5.50785 6.81805 5.38 6.87531C5.22903 7.01243 5.06213 7.13128 4.88391 7.23077C4.79835 7.26226 4.68399 7.26792 4.56653 7.29034C4.97349 6.6493 5.46128 6.06288 6.0177 5.5462ZM8.4093 3.96417C8.86986 4.08927 9.35125 4.12175 9.82434 4.0589C9.87148 4.05328 10.1643 4.15373 10.3243 4.21906C10.5838 4.66972 9.84963 5.26053 9.52942 5.32648C9.20984 5.39135 8.85421 5.42179 8.52942 5.48663C8.23492 5.66687 7.90327 5.77868 7.55969 5.81281C7.4403 5.74359 7.35747 5.62333 7.33411 5.48663C7.31824 5.23428 7.38689 4.98357 7.52942 4.77472C7.50349 4.70221 7.46687 4.63406 7.42004 4.57355L7.37024 4.51495C7.70221 4.3088 8.04926 4.12541 8.4093 3.96417Z" fill="#D3DA31"/>
</svg>
