<svg width="24" height="24" viewBox="0 0 24 24" fill="none" xmlns="http://www.w3.org/2000/svg">
<rect y="1.52588e-05" width="24" height="24" fill="white"/>
<path d="M8.00159 24C10.2096 24 12.0016 22.208 12.0016 20V16H8.00159C5.79359 16 4.00159 17.792 4.00159 20C4.00159 22.208 5.79359 24 8.00159 24Z" fill="#0ACF83"/>
<path d="M4.00159 12C4.00159 9.79201 5.79359 8.00002 8.00159 8.00002H12.0016V16H8.00159C5.79359 16 4.00159 14.208 4.00159 12Z" fill="#A259FF"/>
<path d="M4.00159 4C4.00159 1.792 5.79359 0 8.00159 0H12.0016V8H8.00159C5.79359 8 4.00159 6.208 4.00159 4Z" fill="#F24E1E"/>
<path d="M12.0016 0H16.0016C18.2096 0 20.0016 1.792 20.0016 4C20.0016 6.208 18.2096 8 16.0016 8H12.0016V0Z" fill="#FF7262"/>
<path d="M20.0016 12C20.0016 14.208 18.2096 16 16.0016 16C13.7936 16 12.0016 14.208 12.0016 12C12.0016 9.79201 13.7936 8.00002 16.0016 8.00002C18.2096 8.00002 20.0016 9.79201 20.0016 12Z" fill="#1ABCFE"/>
</svg>
