<svg width="24" height="24" viewBox="0 0 24 24" fill="none" xmlns="http://www.w3.org/2000/svg">
<path d="M22.3894 8.04928C21.884 6.8336 20.8604 5.52115 20.0566 5.10633C20.7108 6.38883 21.0894 7.67534 21.2341 8.63549C21.2341 8.63738 21.2348 8.64207 21.2364 8.65484C19.9215 5.37744 17.6918 4.05589 15.8712 1.17841C15.7792 1.03291 15.6871 0.887018 15.5972 0.733244C15.5515 0.65471 15.5088 0.574458 15.4692 0.492663C15.3936 0.346623 15.3352 0.192257 15.2954 0.032695C15.2956 0.025141 15.2931 0.0177558 15.2882 0.01199C15.2833 0.00622421 15.2764 0.00249457 15.2689 0.00153369C15.2618 -0.000511228 15.2542 -0.000511228 15.2471 0.00153369C15.2455 0.00211433 15.2431 0.00400143 15.2413 0.00467885C15.2387 0.00569498 15.2355 0.00801756 15.2328 0.00951756C15.2341 0.00777562 15.2368 0.00385627 15.2376 0.00293691C12.3165 1.71371 11.3255 4.87847 11.2345 6.46184C10.068 6.54204 8.95271 6.97181 8.03405 7.69513C7.93787 7.61389 7.83732 7.53797 7.73284 7.46772C7.46779 6.54042 7.45653 5.55898 7.70023 4.62584C6.50565 5.16976 5.57652 6.02955 4.90103 6.78875H4.89566C4.43468 6.20486 4.4672 4.27876 4.49347 3.87662C4.48795 3.8517 4.14958 4.05226 4.10526 4.0825C3.69848 4.37286 3.31819 4.69865 2.96884 5.05605C2.5713 5.45919 2.20808 5.89479 1.88294 6.3583C1.88294 6.35888 1.8826 6.35955 1.8824 6.36013C1.8824 6.35951 1.88274 6.35888 1.88294 6.3583C1.13518 7.41795 0.604849 8.61529 0.322597 9.88112C0.317032 9.90633 0.312339 9.93246 0.30692 9.95786C0.285049 10.0602 0.206274 10.5724 0.192484 10.6837C0.191419 10.6922 0.190936 10.7005 0.189919 10.709C0.0880761 11.2385 0.0250054 11.7747 0.00120966 12.3134C0.00120966 12.3332 0 12.3529 0 12.3728C0.000193548 18.7944 5.20665 23.9999 11.6288 23.9999C17.3803 23.9999 22.1559 19.8247 23.0908 14.3404C23.1105 14.1916 23.1263 14.042 23.1437 13.8918C23.3748 11.8978 23.118 9.80191 22.3894 8.04928ZM8.98646 17.1506C9.04084 17.1766 9.09194 17.205 9.14778 17.2299C9.1501 17.2315 9.15329 17.2333 9.15567 17.2348C9.09883 17.2076 9.04242 17.1795 8.98646 17.1506V17.1506ZM21.2373 8.6577L21.2358 8.64643C21.2363 8.65054 21.2371 8.65485 21.2377 8.65896L21.2373 8.6577Z" fill="url(#paint0_linear_3_873)"/>
<path d="M22.3895 8.04931C21.8841 6.83363 20.8604 5.52118 20.0566 5.10635C20.7108 6.38886 21.0895 7.67537 21.2341 8.63552C21.2341 8.63271 21.2347 8.63784 21.2359 8.64646C21.2365 8.65057 21.2372 8.65488 21.2378 8.65899C22.335 11.6333 21.7373 14.6579 20.8759 16.5062C19.5434 19.3659 16.3171 22.2967 11.2674 22.1537C5.81151 21.9992 1.00503 17.951 0.107783 12.6489C-0.0557167 11.8127 0.107783 11.3882 0.190042 10.7093C0.0898318 11.2327 0.0516544 11.3838 0.00133178 12.3137C0.00133178 12.3335 0.00012207 12.3532 0.00012207 12.373C0.000218845 18.7944 5.20667 24 11.6288 24C17.3803 24 22.1559 19.8248 23.0908 14.3405C23.1105 14.1916 23.1263 14.042 23.1437 13.8919C23.3748 11.8978 23.118 9.80194 22.3895 8.04931Z" fill="url(#paint1_radial_3_873)"/>
<path d="M22.3895 8.04931C21.8841 6.83363 20.8604 5.52118 20.0566 5.10635C20.7108 6.38886 21.0895 7.67537 21.2341 8.63552C21.2341 8.63271 21.2347 8.63784 21.2359 8.64646C21.2365 8.65057 21.2372 8.65488 21.2378 8.65899C22.335 11.6333 21.7373 14.6579 20.8759 16.5062C19.5434 19.3659 16.3171 22.2967 11.2674 22.1537C5.81151 21.9992 1.00503 17.951 0.107783 12.6489C-0.0557167 11.8127 0.107783 11.3882 0.190042 10.7093C0.0898318 11.2327 0.0516544 11.3838 0.00133178 12.3137C0.00133178 12.3335 0.00012207 12.3532 0.00012207 12.373C0.000218845 18.7944 5.20667 24 11.6288 24C17.3803 24 22.1559 19.8248 23.0908 14.3405C23.1105 14.1916 23.1263 14.042 23.1437 13.8919C23.3748 11.8978 23.118 9.80194 22.3895 8.04931Z" fill="url(#paint2_radial_3_873)"/>
<path d="M16.7384 9.41617C16.7637 9.43397 16.7868 9.45168 16.8106 9.46939C16.5188 8.95144 16.1554 8.47722 15.7311 8.06074C12.1163 4.44642 14.7832 0.22387 15.233 0.00941878C15.2343 0.00767685 15.237 0.00375749 15.2378 0.00283813C12.3167 1.71361 11.3257 4.87837 11.2347 6.46174C11.3702 6.45236 11.5053 6.44099 11.6432 6.44099C13.8231 6.44099 15.7217 7.63954 16.7384 9.41617V9.41617Z" fill="url(#paint3_radial_3_873)"/>
<path d="M11.6504 10.1378C11.6314 10.4271 10.6094 11.4246 10.2521 11.4246C6.94533 11.4246 6.40857 13.4247 6.40857 13.4247C6.55504 15.109 7.72765 16.496 9.14781 17.23C9.2126 17.2635 9.27817 17.2937 9.34378 17.3236C9.45627 17.3734 9.57018 17.42 9.68535 17.4632C10.1723 17.6356 10.6823 17.734 11.1985 17.7551C16.9943 18.0269 18.1171 10.8263 13.9345 8.73534C15.0057 8.54905 16.1175 8.97984 16.7384 9.416C15.7217 7.63952 13.8231 6.44097 11.6432 6.44097C11.5053 6.44097 11.3703 6.45234 11.2347 6.46173C10.0683 6.54192 8.95299 6.97169 8.03433 7.69502C8.21162 7.84502 8.41175 8.04553 8.83339 8.46089C9.6222 9.23832 11.6461 10.0434 11.6504 10.1378V10.1378Z" fill="url(#paint4_radial_3_873)"/>
<path d="M11.6504 10.1378C11.6314 10.4271 10.6094 11.4246 10.2521 11.4246C6.94533 11.4246 6.40857 13.4247 6.40857 13.4247C6.55504 15.109 7.72765 16.496 9.14781 17.23C9.2126 17.2635 9.27817 17.2937 9.34378 17.3236C9.45627 17.3734 9.57018 17.42 9.68535 17.4632C10.1723 17.6356 10.6823 17.734 11.1985 17.7551C16.9943 18.0269 18.1171 10.8263 13.9345 8.73534C15.0057 8.54905 16.1175 8.97984 16.7384 9.416C15.7217 7.63952 13.8231 6.44097 11.6432 6.44097C11.5053 6.44097 11.3703 6.45234 11.2347 6.46173C10.0683 6.54192 8.95299 6.97169 8.03433 7.69502C8.21162 7.84502 8.41175 8.04553 8.83339 8.46089C9.6222 9.23832 11.6461 10.0434 11.6504 10.1378V10.1378Z" fill="url(#paint5_radial_3_873)"/>
<path d="M7.49186 7.30828C7.57285 7.36052 7.6532 7.41375 7.73288 7.46796C7.46783 6.54066 7.45657 5.55921 7.70027 4.62608C6.50568 5.17 5.57655 6.02979 4.90106 6.78899C4.95695 6.78739 6.64368 6.75705 7.49186 7.30828V7.30828Z" fill="url(#paint6_radial_3_873)"/>
<path d="M0.107753 12.6488C1.005 17.951 5.81148 21.9992 11.2674 22.1537C16.3171 22.2966 19.5434 19.3656 20.8759 16.5061C21.7372 14.6577 22.335 11.6335 21.2378 8.65895L21.2374 8.65769L21.2358 8.64641C21.2346 8.6378 21.2339 8.63267 21.2341 8.63548C21.2341 8.63737 21.2348 8.64206 21.2364 8.65483C21.6488 11.3481 20.2788 13.9573 18.1371 15.7215L18.1307 15.7366C13.9576 19.1345 9.96421 17.7867 9.15566 17.235C9.09883 17.2076 9.04237 17.1795 8.98631 17.1506C6.5533 15.9879 5.54821 13.7714 5.76372 11.8704C3.70935 11.8704 3.00885 10.1378 3.00885 10.1378C3.00885 10.1378 4.85332 8.82264 7.28424 9.96641C9.53569 11.0258 11.6501 10.1378 11.6504 10.1378C11.646 10.0433 9.62211 9.23824 8.83311 8.46085C8.41152 8.0455 8.21134 7.84522 8.03405 7.69498C7.93787 7.61374 7.83731 7.53782 7.73284 7.46756C7.65306 7.41349 7.57272 7.36026 7.49182 7.30788C6.64369 6.75666 4.95692 6.787 4.90103 6.78845H4.89566C4.43467 6.20456 4.46719 4.27847 4.49347 3.87632C4.48795 3.8514 4.14958 4.05197 4.10526 4.08221C3.69847 4.37257 3.31818 4.69835 2.96884 5.05576C2.57129 5.45899 2.20806 5.89468 1.88293 6.35829C1.88293 6.35887 1.88259 6.35955 1.8824 6.36013C1.8824 6.3595 1.88274 6.35887 1.88293 6.35829C1.13517 7.41794 0.604844 8.61528 0.322592 9.88111C0.317028 9.90632 -0.0959564 11.7122 0.107753 12.6488V12.6488Z" fill="url(#paint7_radial_3_873)"/>
<path d="M15.7311 8.0606C16.1553 8.47708 16.5187 8.9513 16.8106 9.46925C16.8746 9.51735 16.9344 9.5653 16.9852 9.61209C19.6214 12.0411 18.2401 15.4766 18.1371 15.7214C20.2788 13.9573 21.6488 11.3481 21.2364 8.6548C19.9215 5.37744 17.6918 4.05589 15.8712 1.17841C15.7792 1.03291 15.687 0.887018 15.5972 0.733244C15.5515 0.65471 15.5088 0.574458 15.4692 0.492663C15.3936 0.346623 15.3352 0.192257 15.2953 0.032695C15.2956 0.025141 15.2931 0.0177558 15.2882 0.01199C15.2833 0.00622421 15.2764 0.00249457 15.2689 0.00153369C15.2618 -0.000511228 15.2542 -0.000511228 15.2471 0.00153369C15.2455 0.00211433 15.243 0.00400143 15.2413 0.00467885C15.2387 0.00569498 15.2355 0.00801756 15.2328 0.00951756C14.7832 0.223776 12.1163 4.44633 15.7311 8.0606V8.0606Z" fill="url(#paint8_radial_3_873)"/>
<path d="M16.9853 9.61207C16.9345 9.56528 16.8747 9.51733 16.8107 9.46923C16.787 9.45142 16.7638 9.43371 16.7384 9.416C16.1175 8.97984 15.0057 8.54905 13.9345 8.73534C18.1172 10.8263 16.9943 18.0269 11.1985 17.7551C10.6824 17.734 10.1723 17.6356 9.68536 17.4632C9.57021 17.4199 9.45631 17.3734 9.3438 17.3236C9.27818 17.2937 9.21262 17.2635 9.14783 17.23C9.15015 17.2316 9.15334 17.2334 9.15571 17.2348C9.96426 17.7864 13.9576 19.1343 18.1308 15.7365L18.1372 15.7213C18.2402 15.4768 19.6215 12.0411 16.9853 9.61207V9.61207Z" fill="url(#paint9_radial_3_873)"/>
<path d="M6.40855 13.4246C6.40855 13.4246 6.94531 11.4245 10.252 11.4245C10.6095 11.4245 11.6315 10.427 11.6504 10.1378C11.6694 9.84851 9.53592 11.0258 7.28431 9.96643C4.85338 8.82265 3.00891 10.1378 3.00891 10.1378C3.00891 10.1378 3.70941 11.8705 5.76379 11.8705C5.54832 13.7714 6.55342 15.9882 8.98638 17.1507C9.04077 17.1766 9.09187 17.205 9.1477 17.23C7.72764 16.496 6.55502 15.109 6.40855 13.4246V13.4246Z" fill="url(#paint10_radial_3_873)"/>
<path d="M22.3894 8.04928C21.884 6.8336 20.8603 5.52115 20.0565 5.10633C20.7107 6.38883 21.0894 7.67534 21.234 8.63549C21.234 8.63738 21.2348 8.64207 21.2363 8.65484C19.9214 5.37744 17.6918 4.05589 15.8711 1.17841C15.7792 1.03291 15.687 0.887018 15.5972 0.733244C15.5515 0.65471 15.5087 0.574458 15.4691 0.492663C15.3935 0.346623 15.3352 0.192257 15.2953 0.032695C15.2956 0.025141 15.293 0.0177558 15.2881 0.01199C15.2832 0.00622421 15.2764 0.00249457 15.2689 0.00153369C15.2617 -0.000511228 15.2542 -0.000511228 15.247 0.00153369C15.2454 0.00211433 15.243 0.00400143 15.2412 0.00467885C15.2387 0.00569498 15.2354 0.00801756 15.2327 0.00951756C15.234 0.00777562 15.2367 0.00385627 15.2376 0.00293691C12.3164 1.71371 11.3255 4.87847 11.2344 6.46184C11.3699 6.45246 11.505 6.44109 11.6429 6.44109C13.8229 6.44109 15.7215 7.63963 16.738 9.41612C16.1171 8.97996 15.0053 8.54917 13.9342 8.73546C18.1168 10.8265 16.9939 18.027 11.1981 17.7552C10.682 17.7341 10.1719 17.6358 9.685 17.4634C9.56985 17.4201 9.45595 17.3735 9.34343 17.3237C9.27782 17.2938 9.21226 17.2636 9.14747 17.2301C9.14979 17.2317 9.15298 17.2335 9.15535 17.2349C9.09852 17.2076 9.04206 17.1795 8.986 17.1506C9.04038 17.1766 9.09148 17.205 9.14732 17.2299C7.72716 16.496 6.55454 15.109 6.40808 13.4246C6.40808 13.4246 6.94484 11.4245 10.2516 11.4245C10.609 11.4245 11.631 10.427 11.65 10.1378C11.6456 10.0433 9.62171 9.23825 8.83271 8.46086C8.41111 8.04551 8.21093 7.84523 8.03364 7.69499C7.93746 7.61375 7.83691 7.53783 7.73243 7.46757C7.46738 6.54027 7.45612 5.55883 7.69982 4.6257C6.50524 5.16962 5.57611 6.02941 4.90062 6.7886H4.89525C4.43427 6.20471 4.46679 4.27862 4.49306 3.87647C4.48754 3.85155 4.14917 4.05212 4.10485 4.08236C3.69807 4.37272 3.31778 4.6985 2.96843 5.05591C2.571 5.45911 2.20789 5.89475 1.88286 6.3583C1.88286 6.35888 1.88253 6.35955 1.88233 6.36013C1.88233 6.35951 1.88267 6.35888 1.88286 6.3583C1.13511 7.41795 0.604777 8.61529 0.322525 9.88112C0.316961 9.90633 0.312267 9.93246 0.306848 9.95786C0.284977 10.0602 0.186558 10.5798 0.172816 10.6912C0.171751 10.6998 0.173832 10.6827 0.172816 10.6912C0.0830649 11.2281 0.0257994 11.7699 0.00133173 12.3136C0.00133173 12.3335 0.00012207 12.3531 0.00012207 12.373C0.00012207 18.7944 5.20658 23.9999 11.6287 23.9999C17.3802 23.9999 22.1558 19.8247 23.0907 14.3404C23.1104 14.1916 23.1262 14.042 23.1436 13.8918C23.3747 11.8978 23.1179 9.80191 22.3894 8.04928ZM21.2358 8.64643C21.2364 8.65054 21.2371 8.65485 21.2377 8.65896L21.2373 8.6577L21.2358 8.64643V8.64643Z" fill="url(#paint11_linear_3_873)"/>
<defs>
<linearGradient id="paint0_linear_3_873" x1="20.2647" y1="3.71999" x2="1.59272" y2="21.7318" gradientUnits="userSpaceOnUse">
<stop offset="0.05" stop-color="#FFF44F"/>
<stop offset="0.37" stop-color="#FF980E"/>
<stop offset="0.53" stop-color="#FF3647"/>
<stop offset="0.7" stop-color="#E31587"/>
</linearGradient>
<radialGradient id="paint1_radial_3_873" cx="0" cy="0" r="1" gradientUnits="userSpaceOnUse" gradientTransform="translate(16.0935 2.67532) scale(23.7833 24.1839)">
<stop offset="0.13" stop-color="#FFBD4F"/>
<stop offset="0.28" stop-color="#FF980E"/>
<stop offset="0.47" stop-color="#FF3750"/>
<stop offset="0.78" stop-color="#EB0878"/>
<stop offset="0.86" stop-color="#E50080"/>
</radialGradient>
<radialGradient id="paint2_radial_3_873" cx="0" cy="0" r="1" gradientUnits="userSpaceOnUse" gradientTransform="translate(9.19722 12.6638) scale(24.3779 24.1839)">
<stop offset="0.3" stop-color="#960E18"/>
<stop offset="0.35" stop-color="#B11927" stop-opacity="0.74"/>
<stop offset="0.43" stop-color="#DB293D" stop-opacity="0.34"/>
<stop offset="0.5" stop-color="#F5334B" stop-opacity="0.09"/>
<stop offset="0.53" stop-color="#FF3750" stop-opacity="0"/>
</radialGradient>
<radialGradient id="paint3_radial_3_873" cx="0" cy="0" r="1" gradientUnits="userSpaceOnUse" gradientTransform="translate(13.9111 -1.13315) scale(7.80631 13.2532)">
<stop offset="0.13" stop-color="#FFF44F"/>
<stop offset="0.53" stop-color="#FF980E"/>
</radialGradient>
<radialGradient id="paint4_radial_3_873" cx="0" cy="0" r="1" gradientUnits="userSpaceOnUse" gradientTransform="translate(8.75964 18.9072) scale(10.3298 11.3216)">
<stop offset="0.35" stop-color="#3A8EE6"/>
<stop offset="0.67" stop-color="#9059FF"/>
<stop offset="1" stop-color="#C139E6"/>
</radialGradient>
<radialGradient id="paint5_radial_3_873" cx="0" cy="0" r="1" gradientUnits="userSpaceOnUse" gradientTransform="translate(10.5247 10.1771) scale(5.48514 6.67974)">
<stop offset="0.21" stop-color="#9059FF" stop-opacity="0"/>
<stop offset="0.97" stop-color="#6E008B" stop-opacity="0.6"/>
</radialGradient>
<radialGradient id="paint6_radial_3_873" cx="0" cy="0" r="1" gradientUnits="userSpaceOnUse" gradientTransform="translate(10.8479 1.78419) scale(8.21228 8.24146)">
<stop offset="0.1" stop-color="#FFE226"/>
<stop offset="0.79" stop-color="#FF7139"/>
</radialGradient>
<radialGradient id="paint7_radial_3_873" cx="0" cy="0" r="1" gradientUnits="userSpaceOnUse" gradientTransform="translate(18.3479 -3.62246) scale(39.207 32.9121)">
<stop offset="0.11" stop-color="#FFF44F"/>
<stop offset="0.46" stop-color="#FF980E"/>
<stop offset="0.72" stop-color="#FF3647"/>
<stop offset="0.9" stop-color="#E31587"/>
</radialGradient>
<radialGradient id="paint8_radial_3_873" cx="0" cy="0" r="1" gradientTransform="matrix(2.71465 12.1392 -54.5362 2.69402 3.78723 7.2464)" gradientUnits="userSpaceOnUse">
<stop stop-color="#FFF44F"/>
<stop offset="0.3" stop-color="#FF980E"/>
<stop offset="0.57" stop-color="#FF3647"/>
<stop offset="0.74" stop-color="#E31587"/>
</radialGradient>
<radialGradient id="paint9_radial_3_873" cx="0" cy="0" r="1" gradientUnits="userSpaceOnUse" gradientTransform="translate(10.9324 4.74829) scale(22.5106 22.1151)">
<stop offset="0.14" stop-color="#FFF44F"/>
<stop offset="0.48" stop-color="#FF980E"/>
<stop offset="0.66" stop-color="#FF3647"/>
<stop offset="0.9" stop-color="#E31587"/>
</radialGradient>
<radialGradient id="paint10_radial_3_873" cx="0" cy="0" r="1" gradientUnits="userSpaceOnUse" gradientTransform="translate(16.7751 6.0417) scale(27.057 24.2057)">
<stop offset="0.09" stop-color="#FFF44F"/>
<stop offset="0.63" stop-color="#FF980E"/>
</radialGradient>
<linearGradient id="paint11_linear_3_873" x1="18.5808" y1="3.35999" x2="3.64969" y2="19.6739" gradientUnits="userSpaceOnUse">
<stop offset="0.17" stop-color="#FFF44F" stop-opacity="0.8"/>
<stop offset="0.6" stop-color="#FFF44F" stop-opacity="0"/>
</linearGradient>
</defs>
</svg>
