<svg width="22" height="22" viewBox="0 0 22 22" fill="none" xmlns="http://www.w3.org/2000/svg">
<path fill-rule="evenodd" clip-rule="evenodd" d="M7.30079 0.593267C4.66035 1.49673 2.41044 3.47268 1.15725 5.97323C0.720095 6.83589 0.405341 7.75101 0.212992 8.7011C-0.264968 11.0559 0.0672721 13.5681 1.15143 15.7131C1.85671 17.112 2.87092 18.3594 4.09496 19.3329C5.25489 20.2538 6.60133 20.9416 8.03521 21.3205C9.84214 21.8043 11.7656 21.7927 13.5842 21.3788C15.2279 20.9999 16.7842 20.213 18.0257 19.0706C19.3372 17.864 20.2757 16.2786 20.7711 14.5707C21.3132 12.7114 21.3831 10.7237 21.045 8.81191C17.6469 8.81191 14.2429 8.81191 10.8447 8.81191C10.8447 10.2225 10.8447 11.633 10.8447 13.0436C12.8148 13.0436 14.7849 13.0436 16.755 13.0436C16.5277 14.3958 15.7234 15.6315 14.5868 16.3951C13.8698 16.8789 13.048 17.1879 12.197 17.3394C11.3459 17.4851 10.46 17.5026 9.60898 17.3335C8.7405 17.1587 7.91864 16.7973 7.19587 16.2902C6.04177 15.48 5.16163 14.2967 4.71281 12.9619C4.25234 11.6038 4.24651 10.0942 4.71281 8.7419C5.03922 7.78598 5.57547 6.90584 6.28658 6.18307C7.1609 5.28544 8.29751 4.64427 9.52738 4.38197C10.5766 4.16048 11.684 4.20128 12.7099 4.51021C13.5842 4.7725 14.3886 5.25629 15.0472 5.8858C15.7117 5.22132 16.3762 4.55684 17.0407 3.89236C17.3904 3.5368 17.7576 3.1929 18.0957 2.82569C17.0873 1.89308 15.8983 1.14117 14.6043 0.663212C12.2727 -0.199448 9.64979 -0.216934 7.30079 0.593267Z" fill="white"/>
<path fill-rule="evenodd" clip-rule="evenodd" d="M7.30179 0.593453C9.64496 -0.216748 12.2737 -0.199261 14.6053 0.657569C15.8992 1.13553 17.0825 1.88161 18.0966 2.82005C17.7586 3.18726 17.3914 3.53116 17.0416 3.88671C16.3771 4.55119 15.7127 5.21568 15.0482 5.88016C14.3895 5.25065 13.5852 4.77269 12.7108 4.50456C11.6849 4.19564 10.5775 4.14901 9.52833 4.37633C8.30429 4.63863 7.16767 5.27979 6.28753 6.17742C5.57642 6.89436 5.04017 7.78034 4.71376 8.73626C3.53052 7.81531 2.34727 6.90019 1.1582 5.97925C2.41145 3.47287 4.66136 1.49691 7.30179 0.593453Z" fill="#EA4335"/>
<path fill-rule="evenodd" clip-rule="evenodd" d="M0.218543 8.69515C0.410893 7.75089 0.725647 6.82994 1.16281 5.96729C2.34605 6.88823 3.52929 7.80335 4.71836 8.7243C4.25206 10.0824 4.25206 11.5921 4.71836 12.9443C3.53512 13.8653 2.35188 14.7862 1.16863 15.7013C0.0728235 13.5622 -0.259417 11.05 0.218543 8.69515Z" fill="#FBBC05"/>
<path fill-rule="evenodd" clip-rule="evenodd" d="M10.8438 8.80615C14.242 8.80615 17.646 8.80615 21.0441 8.80615C21.3822 10.7122 21.3064 12.6998 20.7702 14.565C20.2747 16.2728 19.3363 17.8582 18.0248 19.0647C16.8766 18.1729 15.7283 17.2811 14.58 16.3894C15.7166 15.6258 16.5209 14.3901 16.7483 13.0378C14.7781 13.0378 12.808 13.0378 10.8379 13.0378C10.8438 11.6273 10.8438 10.2167 10.8438 8.80615Z" fill="#4285F4"/>
<path fill-rule="evenodd" clip-rule="evenodd" d="M1.1582 15.7072C2.34145 14.7921 3.52469 13.8711 4.70793 12.9502C5.16257 14.2849 6.03689 15.4682 7.19099 16.2784C7.91376 16.7855 8.74144 17.1469 9.6041 17.3218C10.4551 17.4966 11.3353 17.4733 12.1921 17.3276C13.0431 17.1761 13.8649 16.8672 14.5819 16.3833C15.7302 17.2751 16.8784 18.167 18.0267 19.0588C16.7851 20.207 15.2289 20.9881 13.5852 21.367C11.7666 21.7809 9.84308 21.7925 8.03616 21.3087C6.60228 20.9298 5.25583 20.2479 4.09591 19.3211C2.87769 18.3535 1.86349 17.1061 1.1582 15.7072Z" fill="#34A853"/>
</svg>
