<svg xmlns="http://www.w3.org/2000/svg" viewBox="0 0 448 512"><path fill="#F5C518" d="M400 32H48C21.5 32 0 53.5 0 80v352c0 26.5 21.5 48 48 48h352c26.5 0 48-21.5 48-48V80c0-26.5-21.5-48-48-48zM21.3 229.2H21c.1-.1.2-.3.3-.4zM97 319.8H64V192h33zm113.2 0h-28.7v-86.4l-11.6 86.4h-20.6l-12.2-84.5v84.5h-29V192h42.8c3.3 19.8 6 39.9 8.7 59.9l7.6-59.9h43zm11.4 0V192h24.6c17.6 0 44.7-1.6 49 20.9 1.7 7.6 1.4 16.3 1.4 24.4 0 88.5 11.1 82.6-75 82.5zm160.9-29.2c0 15.7 2.7 23.8-5.9 23.8h-9.2V192h9.1c7.4 0 5.9 8.7 5.9 26.1v72.5z"/><path fill="#000" d="M235.8 209.3v79.1c-7.2 0-14.3 0-21.5-.1v-84.5c7.6.7 14.3 3.4 21.5 5.5zm-36.9-17.3h-33v127.9h33V192zm-66.7 59.6c-1.8-20.7-4.4-41.3-7.7-61.8H81.6v127.9h27.9v-85.9c4.3 29.4 6.4 58.8 9.2 88.3h22.2c4-29.6 8.1-59.2 12.3-88.9v89.2H184V192h-41.8c-2.5 20.6-4.8 41.2-8.1 61.6zm89.5 68.8v-79.6c-7.2-2.1-14-4.5-21.5-5.4v84.9c7.1 0 14.2.1 21.5.1zm113.3-3.5c-7.9-1.5-13.9-2.8-20.9-4.1-.1-4.1.1-6.7.1-11.3h21.6v79.5h9.2c3.9 0 6.9-1.9 6.9-5.9v-72.4c0-17.4 1.8-27.1-7.5-27.1h-9.1v63.5c-.1-7.4-.1-14.8-.3-22.2zm-159.1-37.4c0-8.1.3-16.8-1.4-24.4-4.3-22.5-31.4-20.9-49-20.9h-24.6v127.9h24.6c16.2-.4 23.6-.8 30.6-3.8 6.1-2.6 14.5-8.2 17.4-14.5 1.9-4.2 2.4-6.8 2.4-14.2V270.3zM245.6 311c-.1-4 .2-7.3.2-11.3 7 1.3 12.9 2.6 20.9 4.1.1 7.4.2 14.8.2 22.2v49.2c.1 4 2.8 5.6 5.9 5.6h11.3v-79.2h-21.3c0 4.6-.2 7.2-.1 11.3-5.5-1.5-11.4-2.3-17.1-1.9z"/></svg>
