<svg width="14" height="14" viewBox="0 0 14 14" fill="none" xmlns="http://www.w3.org/2000/svg">
<path d="M6.99689 0C7.96987 4.53309e-08 8.44392 0.771729 8.60626 1.06348C8.80323 1.41754 8.98905 1.90489 9.16974 2.37109L9.60462 3.4949C9.63297 3.56816 9.70158 3.61804 9.78001 3.62241L10.9832 3.68945C11.4825 3.71724 12.0035 3.74238 12.4012 3.82031C12.7285 3.88445 13.6091 4.09688 13.91 5.02246C14.2108 5.94824 13.6224 6.63757 13.3953 6.88184C13.1194 7.17858 12.7135 7.50539 12.326 7.82129L11.3918 8.58254C11.3309 8.63217 11.3047 8.71286 11.3249 8.7888L11.6336 9.9541C11.7615 10.4375 11.8973 10.9406 11.9461 11.3428C11.9862 11.6739 12.0569 12.5773 11.2693 13.1494C10.482 13.7213 9.64515 13.3749 9.34259 13.2344C8.97506 13.0637 8.53825 12.7788 8.11798 12.5078L7.10535 11.8542C7.03932 11.8116 6.95445 11.8116 6.88842 11.8542L5.87579 12.5078C5.45569 12.7787 5.01957 13.0637 4.65216 13.2344C4.34968 13.3749 3.51194 13.7216 2.72443 13.1494C1.93709 12.5773 2.00753 11.6739 2.04767 11.3428C2.09643 10.9405 2.23329 10.4375 2.36114 9.9541L2.66903 8.78873C2.68908 8.71282 2.66287 8.6322 2.60201 8.58261L1.66779 7.82129C1.28028 7.50542 0.874284 7.17854 0.598449 6.88184C0.371284 6.63747 -0.216952 5.94808 0.083801 5.02246L0.147278 4.85742C0.493128 4.07107 1.28673 3.88044 1.59357 3.82031C1.99112 3.74246 2.51152 3.71722 3.01056 3.68945L4.21298 3.62241C4.29131 3.61804 4.35986 3.56828 4.38827 3.49515L4.82501 2.37109C5.00568 1.90494 5.19057 1.4175 5.38751 1.06348C5.54973 0.771912 6.02383 0.000129105 6.99689 0Z" fill="#7845E8"/>
</svg>
