<svg width="14" height="14" viewBox="0 0 14 14" fill="none" xmlns="http://www.w3.org/2000/svg">
<path d="M7 0C10.866 0 14 3.13401 14 7C14 10.866 10.866 14 7 14C3.13401 14 0 10.866 0 7C0 3.13401 3.13401 0 7 0ZM7 1.33008C3.86855 1.33008 1.33008 3.86855 1.33008 7C1.33008 10.1315 3.86855 12.6699 7 12.6699C10.1315 12.6699 12.6699 10.1315 12.6699 7C12.6699 3.86855 10.1315 1.33008 7 1.33008ZM7 3.03516C7.36727 3.03516 7.66504 3.33293 7.66504 3.7002V6.42285C7.66511 6.54927 7.74359 6.66183 7.83203 6.71289L10.2266 8.09473C10.5446 8.27838 10.6533 8.68587 10.4697 9.00391C10.286 9.32157 9.87941 9.43054 9.56152 9.24707L7.16797 7.86523C7.05726 7.80131 6.93215 7.72937 6.83008 7.65625C6.7161 7.57456 6.58851 7.46241 6.49121 7.29395C6.39395 7.12548 6.36045 6.95889 6.34668 6.81934C6.33438 6.69442 6.33496 6.55068 6.33496 6.42285V3.7002C6.33496 3.33293 6.63273 3.03516 7 3.03516Z" fill="#7845E8"/>
</svg>
