<svg width="14" height="12" viewBox="0 0 14 12" fill="none" xmlns="http://www.w3.org/2000/svg">
<path fill-rule="evenodd" clip-rule="evenodd" d="M6.98346 0C7.66776 0.00670883 8.35107 0.0289986 9.03424 0.0712891H9.0362C11.1039 0.199313 12.1389 0.263645 12.9405 1.06152C13.7417 1.85915 13.8082 2.85591 13.9405 4.84766V4.85254C14.007 5.8545 13.9607 6.84992 13.8926 7.84961C13.7802 9.38782 13.6421 10.239 12.9405 10.9375C11.8984 11.8932 10.3633 11.8454 9.03424 11.9277C8.35081 11.97 7.66747 11.9922 6.98346 11.9951C6.29987 11.998 5.6159 11.9617 4.93268 11.9277C3.60364 11.8455 2.06851 11.8933 1.02643 10.9375C0.324955 10.2391 0.186672 9.38774 0.0742827 7.84961C0.00607237 6.84733 -0.0267944 5.85719 0.0264312 4.85254V4.84766C0.158695 2.856 0.225357 1.85913 1.02643 1.06152C1.728 0.363087 2.60824 0.227166 4.20319 0.118164C5.12904 0.0586717 6.05523 1.08695e-05 6.98346 0ZM5.01471 1.39844C3.94166 1.46488 3.28066 1.50987 2.78229 1.61621C2.34678 1.7092 2.14067 1.82897 1.96491 2.00391C1.59276 2.37447 1.49768 2.77061 1.35358 4.94043C1.3066 5.64782 1.3066 6.35121 1.35358 7.05859C1.49768 9.22841 1.59276 9.62455 1.96491 9.99512C2.14067 10.1701 2.34678 10.2898 2.78229 10.3828C3.28066 10.4891 3.94166 10.5341 5.01471 10.6006C5.69216 10.6425 6.36765 10.6689 6.98346 10.6689C7.59927 10.6689 8.27475 10.6425 8.95221 10.6006C10.0252 10.5341 10.6863 10.4891 11.1846 10.3828C11.6202 10.2898 11.8263 10.17 12.002 9.99512C12.3743 9.62452 12.4692 9.22866 12.6133 7.05859C12.6603 6.3512 12.6603 5.64783 12.6133 4.94043C12.6074 4.85123 12.6015 4.76504 12.5955 4.68172C12.575 4.39535 12.5648 4.25216 12.4698 4.16368C12.3747 4.0752 12.23 4.0752 11.9406 4.0752H7.83502C6.89222 4.0752 6.41991 4.07512 6.12702 3.78223C5.83443 3.48931 5.83502 3.01768 5.83502 2.0752V2.04527C5.83502 1.72066 5.83502 1.55836 5.7316 1.46069C5.62818 1.36302 5.46812 1.37218 5.14798 1.3905C5.10358 1.39305 5.05915 1.39569 5.01471 1.39844Z" fill="#7845E8"/>
</svg>
