<svg width="14" height="16" viewBox="0 0 14 16" fill="none" xmlns="http://www.w3.org/2000/svg">
<path d="M7.69984 0C8.93716 0 9.78558 1.25117 9.32484 2.40039L8.28481 5H11.65C12.976 5 13.6509 6.59624 12.7243 7.54688L12.7233 7.5459L4.71449 15.7734C4.57334 15.9183 4.37964 16 4.17738 16H3.67738C3.45997 16 3.25343 15.9054 3.11098 15.7412C2.96852 15.577 2.90445 15.3588 2.9352 15.1436L3.81313 9H1.5016C0.460513 9 -0.266951 7.96326 0.0933987 6.9834L2.23305 1.14746C2.48544 0.458189 3.14209 0 3.87563 0H7.69984ZM3.87563 1.5C3.77158 1.5 3.67717 1.56502 3.64125 1.66309V1.66406L1.5016 7.5H4.67738C4.89477 7.50002 5.10135 7.59456 5.24379 7.75879C5.38621 7.92303 5.45031 8.14124 5.41957 8.35645L4.65883 13.6797L11.65 6.5H7.17738C6.92864 6.5 6.69584 6.37679 6.55629 6.1709C6.41677 5.96486 6.38873 5.70273 6.48109 5.47168L7.93227 1.8418C7.99741 1.67905 7.87648 1.5 7.69984 1.5H3.87563Z" fill="#7845E8"/>
</svg>
