<svg width="16" height="16" viewBox="0 0 16 16" fill="none" xmlns="http://www.w3.org/2000/svg">
<path fill-rule="evenodd" clip-rule="evenodd" d="M8.00098 1C9.43139 1.00023 10.5908 2.16035 10.5908 3.59082V3.80819C10.5908 3.91219 10.6708 3.99866 10.7743 4.00865C11.8238 4.10991 12.4957 4.30651 13.0664 4.87793C13.8847 5.69782 13.933 6.70221 14.0283 8.70898C14.0407 8.96931 14.0478 9.22146 14.0479 9.45801L14.043 9.82422C14.0397 9.94924 14.0345 10.0779 14.0283 10.208L13.9932 10.915C13.909 12.4625 13.7825 13.3207 13.0664 14.0381C12.2479 14.8578 11.2219 14.9081 9.1709 15.0088L8.57715 15.0322C8.38168 15.0376 8.18836 15.04 8.00098 15.04C7.62637 15.04 7.23109 15.0284 6.83203 15.0088C4.90869 14.9144 3.88654 14.8642 3.0918 14.1826L2.93652 14.0381C2.27649 13.377 2.11158 12.4628 2.04533 11.5571C2.01197 11.1009 2.38322 10.7178 2.84058 10.7178H4.55273C5.24839 10.7174 5.81227 10.1537 5.8125 9.45801C5.81237 8.76225 5.24845 8.19759 4.55273 8.19727H2.84166C2.3839 8.19727 2.01566 7.81325 2.05211 7.35694C2.1366 6.29925 2.29575 5.61186 2.79102 5.03418L2.93652 4.87793C3.50702 4.3068 4.17792 4.10997 5.22667 4.00867C5.33019 3.99867 5.41016 3.9122 5.41016 3.8082V3.59082C5.41016 2.16033 6.57053 1.0002 8.00098 1ZM8.00098 2.33008C7.3486 2.33026 6.81172 2.82648 6.74707 3.46191C6.74276 3.5043 6.74023 3.5473 6.74023 3.59082V4.76736C6.74023 5.03387 6.53094 5.25318 6.26483 5.26767C5.55981 5.30605 5.07713 5.34506 4.69238 5.4248C4.27041 5.51237 4.06318 5.63188 3.87695 5.81836C3.68356 6.01216 3.56639 6.20846 3.48371 6.63972C3.46081 6.75916 3.55501 6.86719 3.67662 6.86719H4.55273C5.98299 6.86751 7.14245 8.02771 7.14258 9.45801C7.14235 10.8882 5.98293 12.0475 4.55273 12.0479H3.67652C3.55494 12.0479 3.46076 12.1558 3.48356 12.2752C3.56616 12.7079 3.68317 12.9045 3.87695 13.0986C4.06311 13.285 4.27059 13.4037 4.69238 13.4912C5.18262 13.5928 5.83188 13.6284 6.89746 13.6807C7.28016 13.6994 7.65297 13.71 8.00098 13.71C8.34916 13.71 8.72257 13.6995 9.10547 13.6807C10.1712 13.6283 10.8203 13.5929 11.3105 13.4912C11.7323 13.4036 11.9398 13.2851 12.126 13.0986C12.5072 12.7167 12.5966 12.3252 12.7002 10.1445C12.7118 9.90019 12.7178 9.66923 12.7178 9.45801C12.7178 9.24685 12.7118 9.01575 12.7002 8.77148C12.5967 6.59203 12.5067 6.20009 12.126 5.81836C11.9398 5.63188 11.7323 5.51238 11.3105 5.4248C10.9255 5.34493 10.4423 5.30603 9.73616 5.26765C9.47004 5.25318 9.26074 5.03387 9.26074 4.76735V3.59082C9.26074 3.54733 9.25918 3.50428 9.25488 3.46191C9.22908 3.20777 9.12762 2.97584 8.97363 2.78906C8.89673 2.69576 8.80642 2.61386 8.70605 2.5459C8.50493 2.40978 8.26208 2.33016 8.00098 2.33008Z" fill="black"/>
</svg>
