<svg width="24" height="24" viewBox="0 0 24 24" fill="none" xmlns="http://www.w3.org/2000/svg">
<rect x="0.000244141" width="24" height="24" fill="white"/>
<path fill-rule="evenodd" clip-rule="evenodd" d="M8.7819 0C7.45786 0.000978593 6.3863 1.07547 6.38728 2.39951C6.3863 3.72355 7.45884 4.79804 8.78288 4.79902H11.1785V2.40049C11.1795 1.07645 10.1069 0.00195719 8.7819 0C8.78288 0 8.78288 0 8.7819 0V0ZM8.7819 6.4H2.3956C1.07156 6.40098 -0.000975919 7.47547 2.67437e-06 8.79951C-0.00195451 10.1235 1.07058 11.198 2.39462 11.2H8.7819C10.1059 11.199 11.1785 10.1245 11.1775 8.80049C11.1785 7.47547 10.1059 6.40098 8.7819 6.4V6.4Z" fill="#36C5F0"/>
<path fill-rule="evenodd" clip-rule="evenodd" d="M23.9522 8.79951C23.9532 7.47547 22.8806 6.40098 21.5566 6.4C20.2326 6.40098 19.16 7.47547 19.161 8.79951V11.2H21.5566C22.8806 11.199 23.9532 10.1245 23.9522 8.79951ZM17.5649 8.79951V2.39951C17.5659 1.07645 16.4943 0.00195719 15.1703 0C13.8462 0.000978593 12.7737 1.07547 12.7747 2.39951V8.79951C12.7727 10.1235 13.8452 11.198 15.1693 11.2C16.4933 11.199 17.5659 10.1245 17.5649 8.79951Z" fill="#2EB67D"/>
<path fill-rule="evenodd" clip-rule="evenodd" d="M15.1693 24C16.4933 23.999 17.5659 22.9245 17.5649 21.6005C17.5659 20.2765 16.4933 19.202 15.1693 19.201H12.7737V21.6005C12.7727 22.9235 13.8453 23.998 15.1693 24ZM15.1693 17.599H21.5566C22.8806 17.598 23.9532 16.5235 23.9522 15.1995C23.9541 13.8755 22.8816 12.801 21.5576 12.799H15.1703C13.8462 12.8 12.7737 13.8745 12.7747 15.1985C12.7737 16.5235 13.8453 17.598 15.1693 17.599V17.599Z" fill="#ECB22E"/>
<path fill-rule="evenodd" clip-rule="evenodd" d="M9.22219e-05 15.1995C-0.000886371 16.5235 1.07165 17.598 2.39569 17.599C3.71973 17.598 4.79226 16.5235 4.79129 15.1995V12.7999H2.39569C1.07165 12.8009 -0.000886371 13.8754 9.22219e-05 15.1995ZM6.38737 15.1995V21.5995C6.38541 22.9235 7.45795 23.998 8.78199 24C10.106 23.999 11.1786 22.9245 11.1776 21.6005V15.2014C11.1795 13.8774 10.107 12.8029 8.78297 12.8009C7.45795 12.8009 6.38639 13.8754 6.38737 15.1995C6.38737 15.2004 6.38737 15.1995 6.38737 15.1995Z" fill="#E01E5A"/>
</svg>
