<svg width="12" height="12" viewBox="0 0 12 12" fill="none" xmlns="http://www.w3.org/2000/svg">
<path d="M1.47705 9.1272C1.62695 9.12745 1.71323 9.24823 1.77002 9.35571C1.83132 9.47179 1.89348 9.64199 1.97021 9.85083C2.01057 9.96064 2.01779 9.96776 2.12744 10.0081C2.33626 10.0848 2.50649 10.147 2.62256 10.2083C2.7302 10.2651 2.85205 10.3519 2.85205 10.5022C2.85189 10.6522 2.7301 10.7384 2.62256 10.7952C2.50649 10.8565 2.33629 10.9186 2.12744 10.9954C2.01764 11.0357 2.01061 11.0436 1.97021 11.1536C1.89357 11.3622 1.83126 11.5317 1.77002 11.6477C1.71323 11.7552 1.62705 11.8769 1.47705 11.8772C1.32676 11.8772 1.23996 11.7554 1.18311 11.6477C1.12186 11.5317 1.05955 11.3622 0.98291 11.1536C0.942505 11.0436 0.935523 11.0357 0.825684 10.9954C0.616839 10.9186 0.446639 10.8565 0.330566 10.7952C0.22303 10.7384 0.101234 10.6522 0.101074 10.5022C0.101074 10.3519 0.222921 10.2651 0.330566 10.2083C0.446639 10.147 0.616842 10.0848 0.825684 10.0081C0.935365 9.96775 0.942559 9.96064 0.98291 9.85083C1.05965 9.64199 1.12181 9.47179 1.18311 9.35571C1.23996 9.24812 1.32685 9.1272 1.47705 9.1272ZM6.73877 0.738525C7.31351 0.738788 7.64435 1.20371 7.86182 1.61548C8.09629 2.05957 8.33394 2.70925 8.62744 3.50806C8.78214 3.92907 8.80897 3.95688 9.22998 4.11157C10.029 4.40516 10.6794 4.64169 11.1235 4.87622C11.5354 5.09375 12.0005 5.42524 12.0005 6.00024C12.0004 6.575 11.5353 6.90579 11.1235 7.12329C10.6794 7.35784 10.0291 7.5953 9.22998 7.88892C8.80907 8.04357 8.78204 8.07073 8.62744 8.49146C8.33383 9.29056 8.09636 9.94088 7.86182 10.385C7.64435 10.7968 7.31351 11.2617 6.73877 11.262C6.16372 11.262 5.83228 10.7969 5.61475 10.385C5.3802 9.94088 5.14273 9.29056 4.84912 8.49146C4.69452 8.07073 4.66749 8.04357 4.24658 7.88892C3.44748 7.5953 2.79716 7.35784 2.35303 7.12329C1.94128 6.90579 1.47718 6.575 1.47705 6.00024C1.47705 5.42524 1.94117 5.09375 2.35303 4.87622C2.79713 4.64169 3.44755 4.40516 4.24658 4.11157C4.66759 3.95688 4.69443 3.92907 4.84912 3.50806C5.14263 2.70925 5.38028 2.05957 5.61475 1.61548C5.83228 1.2036 6.16372 0.738525 6.73877 0.738525ZM6.97998 2.0813C6.78458 1.71132 6.6974 1.70107 6.49658 2.0813C6.30118 2.45144 6.09021 3.02291 5.78564 3.85181C5.68262 4.13221 5.58708 4.42335 5.37451 4.63599C5.16191 4.84858 4.87072 4.9441 4.59033 5.04712C3.76111 5.3518 3.18899 5.5626 2.81885 5.75806C2.45184 5.9519 2.4385 6.04053 2.81885 6.24146C3.18899 6.43692 3.76111 6.64869 4.59033 6.95337C4.87062 7.05635 5.16196 7.15105 5.37451 7.36353C5.58716 7.57618 5.6826 7.86822 5.78564 8.14868C6.09023 8.97763 6.30116 9.54912 6.49658 9.91919C6.68994 10.2853 6.78663 10.2853 6.97998 9.91919C7.1754 9.54912 7.38634 8.97763 7.69092 8.14868C7.79397 7.86822 7.8894 7.57618 8.10205 7.36353C8.3146 7.15105 8.60594 7.05635 8.88623 6.95337C9.71546 6.64869 10.2876 6.43692 10.6577 6.24146C11.0268 6.04646 11.0378 5.95881 10.6577 5.75806C10.2876 5.5626 9.71546 5.3518 8.88623 5.04712C8.60584 4.9441 8.31465 4.84858 8.10205 4.63599C7.88948 4.42335 7.79395 4.13221 7.69092 3.85181C7.38636 3.02291 7.17538 2.45144 6.97998 2.0813ZM1.47705 0.122314C1.62705 0.122565 1.71323 0.244273 1.77002 0.351807C1.83126 0.467809 1.89357 0.637349 1.97021 0.845947C2.01062 0.955904 2.01762 0.963792 2.12744 1.00415C2.33629 1.08089 2.50649 1.14305 2.62256 1.20435C2.73011 1.26117 2.85192 1.34724 2.85205 1.49731C2.85205 1.6476 2.7302 1.73441 2.62256 1.79126C2.50649 1.85255 2.33625 1.91473 2.12744 1.99146C2.01779 2.03175 2.01058 2.03883 1.97021 2.14868C1.89348 2.35753 1.83132 2.52773 1.77002 2.6438C1.71323 2.75127 1.62693 2.87206 1.47705 2.87231C1.32688 2.87231 1.23996 2.75138 1.18311 2.6438C1.12181 2.52773 1.05965 2.35753 0.98291 2.14868C0.942544 2.03883 0.935364 2.03177 0.825684 1.99146C0.616857 1.91473 0.446639 1.85255 0.330566 1.79126C0.222921 1.73441 0.101074 1.6476 0.101074 1.49731C0.101201 1.34726 0.223022 1.26117 0.330566 1.20435C0.446639 1.14305 0.616839 1.08089 0.825684 1.00415C0.935542 0.963779 0.942503 0.955918 0.98291 0.845947C1.05955 0.637353 1.12187 0.467811 1.18311 0.351807C1.23996 0.244162 1.32676 0.122314 1.47705 0.122314Z" fill="#7338E2"/>
</svg>
