<svg xmlns="http://www.w3.org/2000/svg" viewBox="0 0 576 512"><path fill="#00AF87" d="M166.4 280.521c0 13.236-10.731 23.966-23.966 23.966s-23.966-10.731-23.966-23.966 10.731-23.966 23.966-23.966 23.966 10.731 23.966 23.966zm264.962-23.956c-13.23 0-23.956 10.725-23.956 23.956s10.725 23.956 23.956 23.956 23.956-10.725 23.956-23.956-10.725-23.956-23.956-23.956zm89.388 139.49c-62.667 49.104-153.276 38.109-202.379-24.559l-30.979 37.372-30.974-37.372C207.315 434.164 116.706 445.159 54.04 396.055c-10.907-8.559-12.83-24.317-4.271-35.225 8.559-10.907 24.317-12.83 35.225-4.271 46.019 36.084 113.29 27.387 150.157-19.461l53.003 63.937 53.003-63.937c36.867 46.848 104.137 55.545 150.157 19.461 10.907-8.559 26.665-6.636 35.225 4.271 8.559 10.908 6.636 26.666-4.271 35.225zM528 106.388l-83.309 2.995c-28.943-28.943-61.305-49.095-99.949-49.095C287.044 60.288 240 114.659 240 175.247c0 60.588 54.371 114.959 114.959 114.959 60.588 0 114.959-54.371 114.959-114.959 0-8.956-1.085-17.677-3.082-26.142l61.164-2.198V106.388zm-173.041 51.378c-35.406 0-64.119 28.713-64.119 64.119s28.713 64.119 64.119 64.119 64.119-28.713 64.119-64.119-28.713-64.119-64.119-64.119zM48 106.388v40.518l61.164 2.198c-1.997 8.465-3.082 17.186-3.082 26.142 0 60.588 54.371 114.959 114.959 114.959S336 235.835 336 175.247C336 114.659 288.956 60.288 231.258 60.288c-38.644 0-71.006 20.152-99.949 49.095L48 106.388zm173.041 51.378c-35.406 0-64.119 28.713-64.119 64.119s28.713 64.119 64.119 64.119 64.119-28.713 64.119-64.119-28.713-64.119-64.119-64.119z"/></svg>
