<svg width="24" height="24" viewBox="0 0 24 24" fill="none" xmlns="http://www.w3.org/2000/svg">
<rect width="24" height="24" rx="2" fill="white"/>
<mask id="mask0_3_905" style="mask-type:luminance" maskUnits="userSpaceOnUse" x="0" y="0" width="24" height="24">
<rect width="24" height="24" rx="2" fill="white"/>
</mask>
<g mask="url(#mask0_3_905)">
<rect width="24" height="24" fill="#1DA1F2"/>
<path d="M9.21598 18.096C14.874 18.096 17.97 13.404 17.97 9.342C17.97 9.21 17.97 9.078 17.964 8.946C18.564 8.514 19.086 7.968 19.5 7.35C18.948 7.596 18.354 7.758 17.73 7.836C18.366 7.458 18.852 6.852 19.086 6.132C18.492 6.486 17.832 6.738 17.13 6.876C16.566 6.276 15.768 5.904 14.886 5.904C13.188 5.904 11.808 7.284 11.808 8.982C11.808 9.222 11.838 9.456 11.886 9.684C9.32998 9.558 7.06198 8.328 5.54398 6.468C5.27998 6.924 5.12998 7.452 5.12998 8.016C5.12998 9.084 5.67598 10.026 6.49798 10.578C5.99398 10.56 5.51998 10.422 5.10598 10.194C5.10598 10.206 5.10598 10.218 5.10598 10.236C5.10598 11.724 6.16798 12.972 7.57198 13.254C7.31398 13.326 7.04398 13.362 6.76198 13.362C6.56398 13.362 6.37198 13.344 6.18598 13.308C6.57598 14.532 7.71598 15.42 9.05998 15.444C8.00398 16.272 6.67798 16.764 5.23798 16.764C4.99198 16.764 4.74598 16.752 4.50598 16.722C5.86198 17.586 7.48198 18.096 9.21598 18.096" fill="white"/>
</g>
</svg>
