<svg width="16" height="16" viewBox="0 0 16 16" fill="none" xmlns="http://www.w3.org/2000/svg">
<path d="M4 1.5C3.72421 1.5 3.5 1.72421 3.5 2H2C2 0.895786 2.89579 0 4 0H12C13.1042 0 14 0.895786 14 2H12.5C12.5 1.72421 12.2758 1.5 12 1.5H4Z" fill="black"/>
<path d="M6 7.5H10V9H6V7.5Z" fill="black"/>
<path fill-rule="evenodd" clip-rule="evenodd" d="M2 3.5C0.895786 3.5 0 4.39579 0 5.5V13.5C0 14.6042 0.895786 15.5 2 15.5H14C15.1042 15.5 16 14.6042 16 13.5V5.5C16 4.39579 15.1042 3.5 14 3.5H2ZM1.5 5.5C1.5 5.22421 1.72421 5 2 5H14C14.2758 5 14.5 5.22421 14.5 5.5V13.5C14.5 13.7758 14.2758 14 14 14H2C1.72421 14 1.5 13.7758 1.5 13.5V5.5Z" fill="black"/>
</svg>
