<svg width="24" height="24" viewBox="0 0 24 24" fill="none" xmlns="http://www.w3.org/2000/svg">
<path fill-rule="evenodd" clip-rule="evenodd" d="M20.5952 4.71273C18.8797 4.24998 12 4.24998 12 4.24998C12 4.24998 5.12041 4.24998 3.40478 4.71273C2.45816 4.96735 1.71266 5.7176 1.45966 6.67035C1.00003 8.3971 1.00003 12 1.00003 12C1.00003 12 1.00003 15.6027 1.45966 17.3297C1.71266 18.2824 2.45816 19.0326 3.40478 19.2874C5.12041 19.75 12 19.75 12 19.75C12 19.75 18.8797 19.75 20.5952 19.2874C21.5419 19.0326 22.2873 18.2824 22.5403 17.3297C23 15.6027 23 12 23 12C23 12 23 8.3971 22.5403 6.67035C22.2873 5.7176 21.5419 4.96735 20.5952 4.71273Z" fill="#FF0000"/>
<path fill-rule="evenodd" clip-rule="evenodd" d="M9.75 15.2711L15.5 12.0001L9.75 8.72887V15.2711Z" fill="white"/>
</svg>
